<svg width="17" height="15" viewBox="0 0 17 15" fill="none" xmlns="http://www.w3.org/2000/svg">
<path d="M5 15H17V13H5V15Z" fill="#9D9896"/>
<path d="M11.5 7H17V5H12L11.5 7Z" fill="#9D9896"/>
<path d="M7.5 11H17V9H10L7.5 11Z" fill="#9D9896"/>
<path fill-rule="evenodd" clip-rule="evenodd" d="M5 10C7.76142 10 10 7.76142 10 5C10 2.23858 7.76142 0 5 0C2.23858 0 0 2.23858 0 5C0 7.76142 2.23858 10 5 10ZM4.44604 8V5.46305H2V4.46305H4.44604V2H5.44604V4.46305H8V5.46305H5.44604V8H4.44604Z" fill="#9D9896"/>
</svg>
