<svg width="12" height="12" viewBox="0 0 12 12" fill="none" xmlns="http://www.w3.org/2000/svg">
<path fill-rule="evenodd" clip-rule="evenodd" d="M2 0C0.895431 0 0 0.895431 0 2V10C0 11.1046 0.895431 12 2 12H10C11.1046 12 12 11.1046 12 10V2C12 0.895431 11.1046 0 10 0H2ZM3.31628 1.99997H3.67187C3.73544 1.99997 3.79874 2.00589 3.86051 2.02094C4.12248 2.08479 4.88703 2.30423 5.5 2.81124C6.25216 3.43339 6.37209 3.70989 6.37209 4.49997C6.37209 5.13592 5.48311 6.36784 5.13627 6.82428C5.06422 6.91909 4.92643 6.9264 4.84223 6.8422L4.62497 6.62494C4.55359 6.55356 4.54594 6.44065 4.60589 6.35944C4.86313 6.01092 5.5 5.10239 5.5 4.65002C5.5 4.08318 5.5 3.94467 5 3.54399C4.5 3.14331 3.76744 3.16284 3.76744 3.16284V9.04542C3.76744 9.5726 2.95349 9.99997 2.13953 9.99997C1.60009 9.99997 1 9.68178 1 9.04542C1 8.51824 1.60009 8.09088 2.13953 8.09088C2.55934 8.09088 2.87765 8.12394 3.11628 8.19006V2.19997C3.11628 2.08951 3.20582 1.99997 3.31628 1.99997ZM7.61048 1.99997H7.96607C8.02964 1.99997 8.09295 2.00589 8.15471 2.02094C8.41668 2.08479 9.18124 2.30423 9.7942 2.81124C10.5464 3.43339 10.6663 3.70989 10.6663 4.49997C10.6663 5.13592 9.77731 6.36784 9.43047 6.82428C9.35843 6.91909 9.22064 6.9264 9.13643 6.8422L8.91917 6.62494C8.8478 6.55356 8.84015 6.44065 8.90009 6.35944C9.15733 6.01092 9.7942 5.10239 9.7942 4.65002C9.7942 4.08318 9.7942 3.94467 9.2942 3.54399C8.7942 3.14331 8.06164 3.16284 8.06164 3.16284V9.04542C8.06164 9.5726 7.24769 9.99997 6.43374 9.99997C5.8943 9.99997 5.2942 9.68178 5.2942 9.04542C5.2942 8.51824 5.8943 8.09088 6.43374 8.09088C6.85354 8.09088 7.17185 8.12394 7.41048 8.19006V2.19997C7.41048 2.08951 7.50002 1.99997 7.61048 1.99997Z" fill="#9D9896"/>
</svg>
