<svg width="29" height="15" viewBox="0 0 29 15" fill="none" xmlns="http://www.w3.org/2000/svg">
<circle cx="25" cy="11" r="4" fill="#D9D9D9"/>
<path fill-rule="evenodd" clip-rule="evenodd" d="M20.9247 6.69785C22.1476 6.15216 23 4.92563 23 3.5C23 1.56702 21.433 0 19.5 0C17.8671 0 16.4954 1.11823 16.1088 2.63065L16.1024 2.62521C16.0922 2.65195 16.0804 2.69962 16.0666 2.76486C16.0519 2.83398 16.0348 2.92288 16.0147 3.02759C15.8064 4.11227 15.272 6.89395 13.6783 6.99179C11.5091 7.125 11.2047 5.25391 11.0343 4.20651L11.0233 4.13889C11.0154 4.09045 11.0077 4.0441 11 4C11 2.89542 10.1046 2 9 2C7.89543 2 7 2.89542 7 4L6.99992 4.0553L6.99959 4.15024C6.99895 4.30841 6.99827 4.47888 7.00326 4.65503C6.99728 5.81024 6.8616 7.42651 5.50001 8.00009C4.43524 8.44864 4.00001 7.3566 4.00001 6.50009L3.98798 6.50742C3.93005 5.47824 3.61143 4.32361 2 4.5C0.901985 4.62021 0 5.89545 0 7C0 7.60504 0.268677 8.14737 0.693222 8.5141L0.665649 8.53088C1.44987 9.0014 2.74911 10.2301 3.0527 11.6655C3.06342 11.7358 3.07587 11.8071 3.0901 11.8788C3.09282 11.8983 3.09533 11.9179 3.09766 11.9375L3.10204 11.937C3.31335 12.9354 3.87585 14 5 14C6.41599 14 6.94085 12.311 6.9952 11.1926C7.12902 9.96155 7.53317 8.00009 9.00002 8.00009C10.4315 8.00009 10.8653 9.85641 11.0019 11.1071C11.006 11.2242 11.0168 11.3397 11.034 11.4531L11.0389 11.5195L11.0447 11.519C11.2906 12.9285 12.5201 14 14 14C15.6569 14 17 12.6569 17 11C17 10.9314 16.9977 10.8633 16.9932 10.7959C17.0119 10.0665 17.4295 8.76328 18.1463 8.15509C18.955 7.4689 19.6618 7.13165 20.2886 6.9108C20.4776 6.86728 20.6607 6.80847 20.8366 6.73572L20.9353 6.70673L20.9247 6.69785Z" fill="#D9D9D9"/>
</svg>
