<svg width="22" height="15" viewBox="0 0 22 15" fill="none" xmlns="http://www.w3.org/2000/svg">
<path d="M15.5 14H1.5V11V1H21V9" stroke="#9D9896" stroke-width="2"/>
<path fill-rule="evenodd" clip-rule="evenodd" d="M7.79291 3.29289C8.18343 2.90237 8.8166 2.90237 9.20712 3.29289L12.2929 6.37868C12.6834 6.7692 13.3166 6.7692 13.7071 6.37868L14.7929 5.29289C15.1834 4.90237 15.8166 4.90237 16.2071 5.29289L20.7071 9.79289H18L16.2067 8.0866C15.8136 7.71258 15.1939 7.72028 14.8103 8.10396L13.7071 9.20711C13.3166 9.59763 12.6834 9.59763 12.2929 9.20711L9.20712 6.12132C8.8166 5.7308 8.18343 5.73079 7.79291 6.12132L2.20712 11.7071L0.792908 10.2929L7.79291 3.29289Z" fill="#9D9896"/>
<path d="M16.5 10.5V14L21 10.5H20H16.5Z" fill="#9D9896"/>
</svg>
