<svg width="22" height="9" viewBox="0 0 22 9" fill="none" xmlns="http://www.w3.org/2000/svg">
<path d="M0.75 1.92844V7.34739C0.75 8.03429 1.42661 8.51669 2.07599 8.29276L10.347 5.44068C11.2606 5.12566 11.2404 3.82667 10.3174 3.54025L2.0464 0.973376C1.40286 0.773657 0.75 1.25462 0.75 1.92844Z" fill="#EDEDED"/>
<path fill-rule="evenodd" clip-rule="evenodd" d="M16.1505 1.15405C16.7028 1.15405 17.1505 1.60177 17.1505 2.15405V6.84592C17.1505 7.39821 16.7028 7.84592 16.1505 7.84592H15.1505C14.5982 7.84592 14.1505 7.39821 14.1505 6.84592V2.15405C14.1505 1.60177 14.5982 1.15405 15.1505 1.15405H16.1505Z" fill="#EDEDED"/>
<path fill-rule="evenodd" clip-rule="evenodd" d="M20.631 1.15405C21.1833 1.15405 21.631 1.60177 21.631 2.15405V6.84592C21.631 7.39821 21.1833 7.84592 20.631 7.84592H19.631C19.0787 7.84592 18.631 7.39821 18.631 6.84592V2.15405C18.631 1.60177 19.0787 1.15405 19.631 1.15405H20.631Z" fill="#EDEDED"/>
</svg>
