<svg width="20" height="19" viewBox="0 0 20 19" fill="none" xmlns="http://www.w3.org/2000/svg">
<path d="M18.3665 2.43041C18.8804 2.22798 19.1328 1.64733 18.9304 1.13348C18.728 0.619625 18.1473 0.367166 17.6335 0.569592L18.3665 2.43041ZM1.86652 8.93041L18.3665 2.43041L17.6335 0.569592L1.13348 7.06959L1.86652 8.93041Z" fill="#9D9896"/>
<path fill-rule="evenodd" clip-rule="evenodd" d="M0 8C0 7.44772 0.447716 7 1 7H19C19.5523 7 20 7.44772 20 8V18C20 18.5523 19.5523 19 19 19H1C0.447716 19 0 18.5523 0 18V8ZM8.48172 9.72726H10.378L12.3809 14.6136H12.4661L14.4689 9.72726H16.3652V17H14.8738V12.2663H14.8134L12.9313 16.9645H11.9157L10.0336 12.2486H9.9732V17H8.48172V9.72726ZM2.63211 9.72726V17H4.16975V13.9957H7.12785V12.728H4.16975V10.995H7.44745V9.72726H2.63211Z" fill="#9D9896"/>
</svg>
