<svg width="7" height="7" viewBox="0 0 7 7" fill="none" xmlns="http://www.w3.org/2000/svg">
<path d="M2.90792 0.0396128C2.81445 0.0141598 2.71824 0 2.62136 0H2.41628C2.25059 0 2.11628 0.134315 2.11628 0.3V5.19009C1.87765 5.12397 1.55934 5.09091 1.13953 5.09091C0.600094 5.09091 0 5.51827 0 6.04545C0 6.68182 0.600094 7 1.13953 7C1.95349 7 2.76744 6.57264 2.76744 6.04545V1.35651C2.76744 1.23066 2.8821 1.13484 3.00654 1.15366C3.31812 1.20079 3.90132 1.27273 4.55814 1.27273C5.21496 1.27273 5.79816 1.20079 6.10974 1.15366C6.23418 1.13484 6.34884 1.23066 6.34884 1.35651V5.19009C6.11021 5.12397 5.7919 5.09091 5.37209 5.09091C4.83265 5.09091 4.23256 5.51827 4.23256 6.04545C4.23256 6.68182 4.83265 7 5.37209 7C6.18605 7 7 6.57264 7 6.04545V0.3C7 0.134315 6.86569 0 6.7 0H6.49492C6.39804 0 6.30183 0.0141598 6.20836 0.0396128C5.89523 0.124886 5.12311 0.318182 4.55814 0.318182C3.99317 0.318182 3.22105 0.124886 2.90792 0.0396128Z" fill="#9D9896"/>
</svg>
