<svg width="12" height="12" viewBox="0 0 12 12" fill="none" xmlns="http://www.w3.org/2000/svg">
<path d="M4.88022 0.0389878C4.78936 0.0135546 4.69626 0 4.60191 0C4.06398 0 3.62791 0.436075 3.62791 0.974V8.89731C3.21883 8.78395 2.67315 8.72727 1.95349 8.72727C1.02873 8.72727 0 9.4599 0 10.3636C0 11.4545 1.02873 12 1.95349 12C3.34884 12 4.74419 11.2674 4.74419 10.3636V3.12347C4.74419 2.49421 5.32008 2.01259 5.94582 2.0791C6.46605 2.1344 7.11574 2.18182 7.81395 2.18182C8.51217 2.18182 9.16186 2.1344 9.68209 2.0791C10.3078 2.01259 10.8837 2.4942 10.8837 3.12347V8.89731C10.4746 8.78395 9.92897 8.72727 9.2093 8.72727C8.28455 8.72727 7.25581 9.4599 7.25581 10.3636C7.25581 11.4545 8.28455 12 9.2093 12C10.6047 12 12 11.2674 12 10.3636V0.974C12 0.436075 11.5639 0 11.026 0C10.9316 0 10.8385 0.0135545 10.7477 0.0389878C10.3018 0.163807 8.85336 0.545455 7.81395 0.545455C6.77455 0.545455 5.32614 0.163807 4.88022 0.0389878Z" fill="#9D9896"/>
</svg>
