<svg width="30" height="16" viewBox="0 0 30 16" fill="none" xmlns="http://www.w3.org/2000/svg">
<circle cx="25.8924" cy="11.4356" r="3.9" fill="url(#paint0_linear_115_39)" stroke="#43557D" stroke-width="0.2"/>
<mask id="path-2-inside-1_115_39" fill="white">
<path fill-rule="evenodd" clip-rule="evenodd" d="M21.7375 7.1678C23.0029 6.64059 23.8924 5.39198 23.8924 3.93561C23.8924 2.00261 22.3254 0.435608 20.3924 0.435608C18.7594 0.435608 17.3877 1.55387 17.0012 3.06636L16.9948 3.06082C16.9738 3.11591 16.9462 3.25968 16.9071 3.46321C16.6987 4.54788 16.1644 7.32954 14.5707 7.4274C12.4014 7.5606 12.0971 5.68952 11.9267 4.64211C11.9148 4.56897 11.9036 4.49984 11.8924 4.4357H11.8924V4.43561C11.8924 3.33104 10.9969 2.43561 9.89236 2.43561C8.7878 2.43561 7.89236 3.33104 7.89236 4.43561C7.89236 4.48422 7.89216 4.53436 7.89195 4.5858V4.58582V4.58583V4.58585C7.89131 4.74399 7.89063 4.91445 7.89562 5.09056C7.88964 6.24577 7.75397 7.86213 6.39237 8.4357C5.32761 8.88423 4.89238 7.79219 4.89238 6.9357L4.88035 6.94303C4.82242 5.91385 4.5038 4.75923 2.89236 4.93561C1.79435 5.0558 0.892365 6.33104 0.892365 7.43561C0.892365 8.04066 1.16104 8.58296 1.58559 8.9497L1.55801 8.9665C2.34223 9.43703 3.64148 10.6657 3.94507 12.1011C3.95578 12.1715 3.96822 12.2427 3.98246 12.3144C3.98518 12.3339 3.9877 12.3535 3.99002 12.3731L3.99441 12.3726C4.20572 13.371 4.76822 14.4356 5.89236 14.4356C7.30837 14.4356 7.83323 12.7465 7.88757 11.6281C8.02141 10.3971 8.42558 8.4357 9.89238 8.4357C11.3238 8.4357 11.7576 10.292 11.8942 11.5426C11.8983 11.6598 11.9092 11.7754 11.9264 11.8888L11.9313 11.9551L11.9371 11.9546C12.1829 13.3641 13.4125 14.4356 14.8924 14.4356C16.5492 14.4356 17.8923 13.0925 17.8924 11.4357C17.8924 10.2828 18.0467 9.60541 18.8206 8.72313C19.5742 7.86399 20.0724 7.63614 20.9613 7.3896C21.1865 7.35279 21.4044 7.29449 21.613 7.21689L21.7519 7.18031L21.7375 7.1678Z"/>
</mask>
<path fill-rule="evenodd" clip-rule="evenodd" d="M21.7375 7.1678C23.0029 6.64059 23.8924 5.39198 23.8924 3.93561C23.8924 2.00261 22.3254 0.435608 20.3924 0.435608C18.7594 0.435608 17.3877 1.55387 17.0012 3.06636L16.9948 3.06082C16.9738 3.11591 16.9462 3.25968 16.9071 3.46321C16.6987 4.54788 16.1644 7.32954 14.5707 7.4274C12.4014 7.5606 12.0971 5.68952 11.9267 4.64211C11.9148 4.56897 11.9036 4.49984 11.8924 4.4357H11.8924V4.43561C11.8924 3.33104 10.9969 2.43561 9.89236 2.43561C8.7878 2.43561 7.89236 3.33104 7.89236 4.43561C7.89236 4.48422 7.89216 4.53436 7.89195 4.5858V4.58582V4.58583V4.58585C7.89131 4.74399 7.89063 4.91445 7.89562 5.09056C7.88964 6.24577 7.75397 7.86213 6.39237 8.4357C5.32761 8.88423 4.89238 7.79219 4.89238 6.9357L4.88035 6.94303C4.82242 5.91385 4.5038 4.75923 2.89236 4.93561C1.79435 5.0558 0.892365 6.33104 0.892365 7.43561C0.892365 8.04066 1.16104 8.58296 1.58559 8.9497L1.55801 8.9665C2.34223 9.43703 3.64148 10.6657 3.94507 12.1011C3.95578 12.1715 3.96822 12.2427 3.98246 12.3144C3.98518 12.3339 3.9877 12.3535 3.99002 12.3731L3.99441 12.3726C4.20572 13.371 4.76822 14.4356 5.89236 14.4356C7.30837 14.4356 7.83323 12.7465 7.88757 11.6281C8.02141 10.3971 8.42558 8.4357 9.89238 8.4357C11.3238 8.4357 11.7576 10.292 11.8942 11.5426C11.8983 11.6598 11.9092 11.7754 11.9264 11.8888L11.9313 11.9551L11.9371 11.9546C12.1829 13.3641 13.4125 14.4356 14.8924 14.4356C16.5492 14.4356 17.8923 13.0925 17.8924 11.4357C17.8924 10.2828 18.0467 9.60541 18.8206 8.72313C19.5742 7.86399 20.0724 7.63614 20.9613 7.3896C21.1865 7.35279 21.4044 7.29449 21.613 7.21689L21.7519 7.18031L21.7375 7.1678Z" fill="url(#paint1_linear_115_39)"/>
<path d="M21.7375 7.1678L21.6606 6.98318L21.3623 7.10746L21.6066 7.31899L21.7375 7.1678ZM17.0012 3.06636L16.8702 3.21755L17.1148 3.42935L17.1949 3.11588L17.0012 3.06636ZM16.9948 3.06082L17.1257 2.90963L16.9096 2.72253L16.8079 2.98962L16.9948 3.06082ZM16.9071 3.46321L17.1035 3.50094L17.1035 3.50094L16.9071 3.46321ZM14.5707 7.4274L14.5585 7.22778L14.5585 7.22778L14.5707 7.4274ZM11.9267 4.64211L12.1241 4.61L12.1241 4.61L11.9267 4.64211ZM11.8924 4.4357L12.0894 4.40136L12.0605 4.2357H11.8924V4.4357ZM11.8924 4.4357H11.6924V4.6357H11.8924V4.4357ZM7.89195 4.5858L7.69195 4.58499V4.5858H7.89195ZM7.89195 4.58585L8.09195 4.58666V4.58585H7.89195ZM7.89562 5.09056L8.09573 5.0916L8.09554 5.0849L7.89562 5.09056ZM6.39237 8.4357L6.47002 8.62002L6.47002 8.62002L6.39237 8.4357ZM4.89238 6.9357H5.09238V6.57971L4.78834 6.76489L4.89238 6.9357ZM4.88035 6.94303L4.68066 6.95427L4.69941 7.2874L4.98438 7.11384L4.88035 6.94303ZM2.89236 4.93561L2.8706 4.7368L2.8706 4.7368L2.89236 4.93561ZM1.58559 8.9497L1.68962 9.12052L1.92401 8.97776L1.71633 8.79836L1.58559 8.9497ZM1.55801 8.9665L1.45398 8.79569L1.17142 8.96778L1.45511 9.138L1.55801 8.9665ZM3.94507 12.1011L4.14311 12.0709L4.14074 12.0597L3.94507 12.1011ZM3.98246 12.3144L4.1809 12.2868L4.17863 12.2754L3.98246 12.3144ZM3.99002 12.3731L3.79141 12.3966L3.81478 12.5938L4.0121 12.5719L3.99002 12.3731ZM3.99441 12.3726L4.19007 12.3312L4.15253 12.1538L3.97232 12.1738L3.99441 12.3726ZM7.88757 11.6281L7.68839 11.6065L7.68781 11.6184L7.88757 11.6281ZM11.8942 11.5426L12.0941 11.5356L12.0939 11.5282L12.0931 11.5209L11.8942 11.5426ZM11.9264 11.8888L12.1258 11.874L12.1253 11.8664L12.1241 11.8588L11.9264 11.8888ZM11.9313 11.9551L11.7318 11.9699L11.7468 12.172L11.9487 12.1544L11.9313 11.9551ZM11.9371 11.9546L12.1341 11.9203L12.1026 11.7394L11.9197 11.7554L11.9371 11.9546ZM17.8924 11.4357L18.0924 11.4357V11.4357H17.8924ZM18.8206 8.72313L18.6702 8.59124L18.6702 8.59124L18.8206 8.72313ZM20.9613 7.3896L20.9291 7.19222L20.9183 7.19397L20.9079 7.19687L20.9613 7.3896ZM21.613 7.21689L21.5621 7.02347L21.5525 7.02599L21.5432 7.02945L21.613 7.21689ZM21.7519 7.18031L21.8028 7.37373L22.1694 7.27725L21.8829 7.02912L21.7519 7.18031ZM23.6924 3.93561C23.6924 5.30844 22.854 6.48594 21.6606 6.98318L21.8144 7.35242C23.1517 6.79525 24.0924 5.47551 24.0924 3.93561H23.6924ZM20.3924 0.635608C22.2149 0.635608 23.6924 2.11307 23.6924 3.93561H24.0924C24.0924 1.89215 22.4358 0.235608 20.3924 0.235608V0.635608ZM17.1949 3.11588C17.5594 1.68978 18.853 0.635608 20.3924 0.635608V0.235608C18.6659 0.235608 17.216 1.41796 16.8074 3.01684L17.1949 3.11588ZM16.8638 3.21201L16.8702 3.21755L17.1321 2.91517L17.1257 2.90963L16.8638 3.21201ZM17.1035 3.50094C17.1231 3.3985 17.1394 3.31374 17.1534 3.24767C17.1684 3.17676 17.1777 3.14252 17.1817 3.13203L16.8079 2.98962C16.7909 3.03421 16.7759 3.0994 16.762 3.16504C16.7471 3.23551 16.7301 3.3244 16.7106 3.42549L17.1035 3.50094ZM14.583 7.62702C15.5065 7.57032 16.0815 6.74181 16.4424 5.89367C16.8108 5.02798 16.9997 4.04105 17.1035 3.50094L16.7106 3.42549C16.6061 3.97004 16.4236 4.91628 16.0744 5.73705C15.7176 6.57537 15.2286 7.18663 14.5585 7.22778L14.583 7.62702ZM11.7293 4.67422C11.8134 5.19129 11.9362 5.96234 12.3301 6.58448C12.5298 6.89984 12.8014 7.18132 13.1749 7.37352C13.5483 7.56571 14.0111 7.66214 14.583 7.62702L14.5585 7.22778C14.0457 7.25926 13.6569 7.17176 13.3579 7.01785C13.0589 6.86396 12.8369 6.63718 12.6681 6.37049C12.3249 5.82853 12.2104 5.14034 12.1241 4.61L11.7293 4.67422ZM11.6953 4.47004C11.7063 4.53286 11.7174 4.60082 11.7293 4.67422L12.1241 4.61C12.1122 4.53712 12.1008 4.46683 12.0894 4.40136L11.6953 4.47004ZM11.8924 4.6357H11.8924V4.2357H11.8924V4.6357ZM11.6924 4.43561V4.4357H12.0924V4.43561H11.6924ZM9.89236 2.63561C10.8865 2.63561 11.6924 3.4415 11.6924 4.43561H12.0924C12.0924 3.22058 11.1074 2.23561 9.89236 2.23561V2.63561ZM8.09236 4.43561C8.09236 3.4415 8.89825 2.63561 9.89236 2.63561V2.23561C8.67734 2.23561 7.69236 3.22058 7.69236 4.43561H8.09236ZM8.09195 4.58661C8.09216 4.53524 8.09236 4.48469 8.09236 4.43561H7.69236C7.69236 4.48374 7.69216 4.53347 7.69196 4.58499L8.09195 4.58661ZM8.09195 4.58582V4.5858H7.69195V4.58582H8.09195ZM8.09195 4.58583V4.58582H7.69195V4.58583H8.09195ZM8.09195 4.58585V4.58583H7.69195V4.58585H8.09195ZM8.09554 5.0849C8.09065 4.91251 8.09131 4.7452 8.09195 4.58666L7.69196 4.58504C7.69132 4.74279 7.6906 4.91639 7.6957 5.09623L8.09554 5.0849ZM6.47002 8.62002C7.21937 8.30435 7.62525 7.70092 7.84226 7.04398C8.05753 6.39229 8.09261 5.67287 8.09561 5.0916L7.69562 5.08953C7.69265 5.66346 7.65691 6.32982 7.46245 6.91851C7.26972 7.50194 6.92697 7.99348 6.31473 8.25139L6.47002 8.62002ZM4.69238 6.9357C4.69238 7.38852 4.80588 7.9238 5.08283 8.29474C5.22399 8.48381 5.41298 8.6367 5.6555 8.70376C5.89851 8.77096 6.17202 8.74555 6.47002 8.62002L6.31473 8.25139C6.08034 8.35012 5.90016 8.35641 5.76211 8.31823C5.62355 8.27992 5.50409 8.19037 5.40335 8.05543C5.19649 7.77837 5.09238 7.33937 5.09238 6.9357H4.69238ZM4.98438 7.11384L4.99641 7.10651L4.78834 6.76489L4.77631 6.77222L4.98438 7.11384ZM2.91413 5.13443C3.66356 5.05239 4.06938 5.27889 4.30734 5.6051C4.55983 5.95122 4.65213 6.44727 4.68066 6.95427L5.08003 6.93179C5.05064 6.40961 4.95467 5.81375 4.6305 5.36937C4.29181 4.90507 3.73261 4.64245 2.8706 4.7368L2.91413 5.13443ZM1.09236 7.43561C1.09236 6.93407 1.29893 6.38099 1.63918 5.93836C1.97992 5.49508 2.43521 5.18685 2.91413 5.13443L2.8706 4.7368C2.25151 4.80457 1.70679 5.19406 1.32204 5.69458C0.936789 6.19577 0.692364 6.83259 0.692364 7.43561H1.09236ZM1.71633 8.79836C1.33389 8.46798 1.09236 7.98012 1.09236 7.43561H0.692364C0.692364 8.10121 0.988191 8.69793 1.45485 9.10105L1.71633 8.79836ZM1.66205 9.13731L1.68962 9.12052L1.48155 8.77889L1.45398 8.79569L1.66205 9.13731ZM4.14074 12.0597C3.97983 11.2989 3.55819 10.6035 3.08455 10.0429C2.61059 9.48191 2.07316 9.04235 1.66091 8.795L1.45511 9.138C1.82708 9.36118 2.33138 9.77124 2.779 10.3011C3.22694 10.8313 3.60672 11.4679 3.74939 12.1425L4.14074 12.0597ZM3.74735 12.1312C3.75851 12.2045 3.77146 12.2787 3.7863 12.3534L4.17863 12.2754C4.16499 12.2067 4.15306 12.1384 4.14278 12.071L3.74735 12.1312ZM4.18863 12.3496C4.18615 12.3286 4.18346 12.3077 4.18056 12.2869L3.78436 12.3419C3.7869 12.3601 3.78925 12.3784 3.79141 12.3966L4.18863 12.3496ZM3.97232 12.1738L3.96794 12.1743L4.0121 12.5719L4.01649 12.5714L3.97232 12.1738ZM3.79874 12.414C3.90808 12.9307 4.11075 13.4787 4.44388 13.9022C4.78129 14.3311 5.25699 14.6356 5.89236 14.6356V14.2356C5.40359 14.2356 5.03597 14.0079 4.75826 13.6549C4.47628 13.2964 4.29204 12.813 4.19007 12.3312L3.79874 12.414ZM5.89236 14.6356C6.69694 14.6356 7.23835 14.1498 7.57506 13.549C7.90949 12.9523 8.05916 12.2178 8.08734 11.6378L7.68781 11.6184C7.66165 12.1568 7.52172 12.8261 7.22613 13.3535C6.93282 13.8768 6.5038 14.2356 5.89236 14.2356V14.6356ZM9.89238 8.2357C9.04631 8.2357 8.52494 8.80951 8.20893 9.48558C7.89338 10.1607 7.75623 10.9858 7.68874 11.6065L8.0864 11.6497C8.15275 11.0395 8.2846 10.2683 8.5713 9.65496C8.85753 9.04258 9.27165 8.6357 9.89238 8.6357V8.2357ZM12.0931 11.5209C12.024 10.8884 11.8784 10.084 11.5584 9.43206C11.2374 8.77792 10.7167 8.2357 9.89238 8.2357V8.6357C10.4996 8.6357 10.9114 9.02162 11.1993 9.60828C11.4883 10.1971 11.6279 10.9462 11.6954 11.5643L12.0931 11.5209ZM12.1241 11.8588C12.1081 11.753 12.098 11.6451 12.0941 11.5356L11.6944 11.5496C11.6987 11.6746 11.7103 11.7977 11.7286 11.9187L12.1241 11.8588ZM12.1307 11.9404L12.1258 11.874L11.7269 11.9035L11.7318 11.9699L12.1307 11.9404ZM11.9197 11.7554L11.9139 11.7559L11.9487 12.1544L11.9545 12.1539L11.9197 11.7554ZM14.8924 14.2356C13.5114 14.2356 12.3635 13.2356 12.1341 11.9203L11.7401 11.989C12.0023 13.4926 13.3137 14.6356 14.8924 14.6356V14.2356ZM17.6924 11.4357C17.6923 12.9821 16.4387 14.2356 14.8924 14.2356V14.6356C16.6596 14.6356 18.0923 13.203 18.0924 11.4357L17.6924 11.4357ZM18.6702 8.59124C18.27 9.04748 18.0214 9.46091 17.8757 9.91709C17.731 10.3702 17.6924 10.8522 17.6924 11.4357H18.0924C18.0924 10.8663 18.1309 10.4331 18.2568 10.0388C18.3817 9.64745 18.5972 9.28106 18.9709 8.85501L18.6702 8.59124ZM20.9079 7.19687C20.4586 7.32149 20.0914 7.44567 19.7384 7.65451C19.3845 7.86388 19.0557 8.15178 18.6702 8.59124L18.9709 8.85502C19.3391 8.43533 19.6362 8.17974 19.9421 7.99876C20.2488 7.81726 20.5752 7.70425 21.0148 7.58232L20.9079 7.19687ZM21.5432 7.02945C21.3467 7.10258 21.1413 7.15752 20.9291 7.19222L20.9936 7.58698C21.2317 7.54806 21.4622 7.48641 21.6827 7.40433L21.5432 7.02945ZM21.701 6.9869L21.5621 7.02347L21.6639 7.4103L21.8028 7.37373L21.701 6.9869ZM21.6066 7.31899L21.621 7.3315L21.8829 7.02912L21.8684 7.01661L21.6066 7.31899Z" fill="#43557D" mask="url(#path-2-inside-1_115_39)"/>
<defs>
<linearGradient id="paint0_linear_115_39" x1="26.1562" y1="5.04825" x2="26.1562" y2="15.0875" gradientUnits="userSpaceOnUse">
<stop stop-color="#7086B5"/>
<stop offset="0.64" stop-color="#455B8A"/>
</linearGradient>
<linearGradient id="paint1_linear_115_39" x1="13.1508" y1="-3.74227" x2="13.1508" y2="13.8264" gradientUnits="userSpaceOnUse">
<stop stop-color="#7086B5"/>
<stop offset="0.64" stop-color="#455B8A"/>
</linearGradient>
</defs>
</svg>
