<svg width="30" height="16" viewBox="0 0 30 16" fill="none" xmlns="http://www.w3.org/2000/svg">
<circle cx="25.8924" cy="11.5403" r="3.9" fill="url(#paint0_linear_115_75)" stroke="#228B22" stroke-width="0.2"/>
<mask id="path-2-inside-1_115_75" fill="white">
<path fill-rule="evenodd" clip-rule="evenodd" d="M21.7375 7.27254C23.0029 6.74533 23.8924 5.49672 23.8924 4.04034C23.8924 2.10735 22.3254 0.540344 20.3924 0.540344C18.7594 0.540344 17.3877 1.65861 17.0012 3.1711L16.9948 3.16556C16.9738 3.22064 16.9462 3.36442 16.9071 3.56795C16.6987 4.65261 16.1644 7.43428 14.5707 7.53214C12.4014 7.66534 12.0971 5.79425 11.9267 4.74684C11.9148 4.6737 11.9036 4.60458 11.8924 4.54044H11.8924V4.54034C11.8924 3.43577 10.9969 2.54034 9.89236 2.54034C8.7878 2.54034 7.89236 3.43577 7.89236 4.54034C7.89236 4.58895 7.89216 4.63909 7.89195 4.69053V4.69055V4.69057V4.69059C7.89131 4.84873 7.89063 5.01918 7.89562 5.1953C7.88964 6.3505 7.75397 7.96686 6.39237 8.54044C5.32761 8.98897 4.89238 7.89693 4.89238 7.04044L4.88035 7.04776C4.82242 6.01859 4.5038 4.86396 2.89236 5.04035C1.79435 5.16054 0.892365 6.43578 0.892365 7.54035C0.892365 8.1454 1.16104 8.68769 1.58559 9.05444L1.55801 9.07124C2.34223 9.54176 3.64148 10.7705 3.94507 12.2058C3.95578 12.2762 3.96822 12.3474 3.98246 12.4191C3.98518 12.4387 3.9877 12.4582 3.99002 12.4778L3.99441 12.4774C4.20572 13.4758 4.76822 14.5403 5.89236 14.5403C7.30837 14.5403 7.83323 12.8512 7.88757 11.7329C8.02141 10.5018 8.42558 8.54044 9.89238 8.54044C11.3238 8.54044 11.7576 10.3967 11.8942 11.6473C11.8983 11.7646 11.9092 11.8801 11.9264 11.9935L11.9313 12.0599L11.9371 12.0594C12.1829 13.4689 13.4125 14.5403 14.8924 14.5403C16.5492 14.5403 17.8923 13.1972 17.8924 11.5404C17.8924 10.3875 18.0467 9.71014 18.8206 8.82786C19.5742 7.96872 20.0724 7.74087 20.9613 7.49433C21.1865 7.45752 21.4044 7.39923 21.613 7.32162L21.7519 7.28505L21.7375 7.27254Z"/>
</mask>
<path fill-rule="evenodd" clip-rule="evenodd" d="M21.7375 7.27254C23.0029 6.74533 23.8924 5.49672 23.8924 4.04034C23.8924 2.10735 22.3254 0.540344 20.3924 0.540344C18.7594 0.540344 17.3877 1.65861 17.0012 3.1711L16.9948 3.16556C16.9738 3.22064 16.9462 3.36442 16.9071 3.56795C16.6987 4.65261 16.1644 7.43428 14.5707 7.53214C12.4014 7.66534 12.0971 5.79425 11.9267 4.74684C11.9148 4.6737 11.9036 4.60458 11.8924 4.54044H11.8924V4.54034C11.8924 3.43577 10.9969 2.54034 9.89236 2.54034C8.7878 2.54034 7.89236 3.43577 7.89236 4.54034C7.89236 4.58895 7.89216 4.63909 7.89195 4.69053V4.69055V4.69057V4.69059C7.89131 4.84873 7.89063 5.01918 7.89562 5.1953C7.88964 6.3505 7.75397 7.96686 6.39237 8.54044C5.32761 8.98897 4.89238 7.89693 4.89238 7.04044L4.88035 7.04776C4.82242 6.01859 4.5038 4.86396 2.89236 5.04035C1.79435 5.16054 0.892365 6.43578 0.892365 7.54035C0.892365 8.1454 1.16104 8.68769 1.58559 9.05444L1.55801 9.07124C2.34223 9.54176 3.64148 10.7705 3.94507 12.2058C3.95578 12.2762 3.96822 12.3474 3.98246 12.4191C3.98518 12.4387 3.9877 12.4582 3.99002 12.4778L3.99441 12.4774C4.20572 13.4758 4.76822 14.5403 5.89236 14.5403C7.30837 14.5403 7.83323 12.8512 7.88757 11.7329C8.02141 10.5018 8.42558 8.54044 9.89238 8.54044C11.3238 8.54044 11.7576 10.3967 11.8942 11.6473C11.8983 11.7646 11.9092 11.8801 11.9264 11.9935L11.9313 12.0599L11.9371 12.0594C12.1829 13.4689 13.4125 14.5403 14.8924 14.5403C16.5492 14.5403 17.8923 13.1972 17.8924 11.5404C17.8924 10.3875 18.0467 9.71014 18.8206 8.82786C19.5742 7.96872 20.0724 7.74087 20.9613 7.49433C21.1865 7.45752 21.4044 7.39923 21.613 7.32162L21.7519 7.28505L21.7375 7.27254Z" fill="url(#paint1_linear_115_75)"/>
<path d="M21.7375 7.27254L21.6606 7.08792L21.3623 7.21219L21.6066 7.42372L21.7375 7.27254ZM17.0012 3.1711L16.8702 3.32229L17.1148 3.53409L17.1949 3.22062L17.0012 3.1711ZM16.9948 3.16556L17.1257 3.01437L16.9096 2.82727L16.8079 3.09435L16.9948 3.16556ZM16.9071 3.56795L17.1035 3.60568L17.1035 3.60567L16.9071 3.56795ZM14.5707 7.53214L14.5585 7.33251L14.5585 7.33251L14.5707 7.53214ZM11.9267 4.74684L12.1241 4.71473L12.1241 4.71473L11.9267 4.74684ZM11.8924 4.54044L12.0894 4.5061L12.0605 4.34044H11.8924V4.54044ZM11.8924 4.54044H11.6924V4.74044H11.8924V4.54044ZM7.89195 4.69053L7.69195 4.68973V4.69053H7.89195ZM7.89195 4.69059L8.09195 4.69139V4.69059H7.89195ZM7.89562 5.1953L8.09573 5.19633L8.09554 5.18963L7.89562 5.1953ZM6.39237 8.54044L6.47002 8.72475L6.47002 8.72475L6.39237 8.54044ZM4.89238 7.04044H5.09238V6.68445L4.78834 6.86963L4.89238 7.04044ZM4.88035 7.04776L4.68066 7.059L4.69941 7.39214L4.98438 7.21858L4.88035 7.04776ZM2.89236 5.04035L2.8706 4.84154L2.8706 4.84154L2.89236 5.04035ZM1.58559 9.05444L1.68962 9.22525L1.92401 9.0825L1.71633 8.90309L1.58559 9.05444ZM1.55801 9.07124L1.45398 8.90042L1.17142 9.07252L1.45511 9.24273L1.55801 9.07124ZM3.94507 12.2058L4.14311 12.1757L4.14074 12.1645L3.94507 12.2058ZM3.98246 12.4191L4.1809 12.3916L4.17863 12.3802L3.98246 12.4191ZM3.99002 12.4778L3.79141 12.5014L3.81478 12.6985L4.0121 12.6766L3.99002 12.4778ZM3.99441 12.4774L4.19007 12.4359L4.15253 12.2586L3.97232 12.2786L3.99441 12.4774ZM7.88757 11.7329L7.68839 11.7112L7.68781 11.7232L7.88757 11.7329ZM11.8942 11.6473L12.0941 11.6403L12.0939 11.633L12.0931 11.6256L11.8942 11.6473ZM11.9264 11.9935L12.1258 11.9788L12.1253 11.9711L12.1241 11.9636L11.9264 11.9935ZM11.9313 12.0599L11.7318 12.0746L11.7468 12.2767L11.9487 12.2591L11.9313 12.0599ZM11.9371 12.0594L12.1341 12.025L12.1026 11.8442L11.9197 11.8601L11.9371 12.0594ZM17.8924 11.5404L18.0924 11.5404V11.5404H17.8924ZM18.8206 8.82786L18.6702 8.69598L18.6702 8.69598L18.8206 8.82786ZM20.9613 7.49433L20.9291 7.29695L20.9183 7.29871L20.9079 7.30161L20.9613 7.49433ZM21.613 7.32162L21.5621 7.12821L21.5525 7.13073L21.5432 7.13418L21.613 7.32162ZM21.7519 7.28505L21.8028 7.47846L22.1694 7.38199L21.8829 7.13386L21.7519 7.28505ZM23.6924 4.04034C23.6924 5.41318 22.854 6.59068 21.6606 7.08792L21.8144 7.45715C23.1517 6.89998 24.0924 5.58025 24.0924 4.04034H23.6924ZM20.3924 0.740344C22.2149 0.740344 23.6924 2.2178 23.6924 4.04034H24.0924C24.0924 1.99689 22.4358 0.340344 20.3924 0.340344V0.740344ZM17.1949 3.22062C17.5594 1.79452 18.853 0.740344 20.3924 0.740344V0.340344C18.6659 0.340344 17.216 1.5227 16.8074 3.12158L17.1949 3.22062ZM16.8638 3.31675L16.8702 3.32229L17.1321 3.01991L17.1257 3.01437L16.8638 3.31675ZM17.1035 3.60567C17.1231 3.50323 17.1394 3.41847 17.1534 3.3524C17.1684 3.2815 17.1777 3.24725 17.1817 3.23676L16.8079 3.09435C16.7909 3.13895 16.7759 3.20413 16.762 3.26977C16.7471 3.34024 16.7301 3.42914 16.7106 3.53022L17.1035 3.60567ZM14.583 7.73176C15.5065 7.67505 16.0815 6.84655 16.4424 5.99841C16.8108 5.13271 16.9997 4.14578 17.1035 3.60568L16.7106 3.53022C16.6061 4.07478 16.4236 5.02101 16.0744 5.84178C15.7176 6.68011 15.2286 7.29136 14.5585 7.33251L14.583 7.73176ZM11.7293 4.77895C11.8134 5.29602 11.9362 6.06708 12.3301 6.68921C12.5298 7.00457 12.8014 7.28605 13.1749 7.47825C13.5483 7.67045 14.0111 7.76688 14.583 7.73176L14.5585 7.33251C14.0457 7.364 13.6569 7.27649 13.3579 7.12259C13.0589 6.96869 12.8369 6.74191 12.6681 6.47523C12.3249 5.93327 12.2104 5.24507 12.1241 4.71473L11.7293 4.77895ZM11.6953 4.57478C11.7063 4.6376 11.7174 4.70555 11.7293 4.77895L12.1241 4.71473C12.1122 4.64186 12.1008 4.57156 12.0894 4.5061L11.6953 4.57478ZM11.8924 4.74044H11.8924V4.34044H11.8924V4.74044ZM11.6924 4.54034V4.54044H12.0924V4.54034H11.6924ZM9.89236 2.74034C10.8865 2.74034 11.6924 3.54623 11.6924 4.54034H12.0924C12.0924 3.32532 11.1074 2.34034 9.89236 2.34034V2.74034ZM8.09236 4.54034C8.09236 3.54623 8.89825 2.74034 9.89236 2.74034V2.34034C8.67734 2.34034 7.69236 3.32532 7.69236 4.54034H8.09236ZM8.09195 4.69134C8.09216 4.63998 8.09236 4.58943 8.09236 4.54034H7.69236C7.69236 4.58848 7.69216 4.6382 7.69196 4.68973L8.09195 4.69134ZM8.09195 4.69055V4.69053H7.69195V4.69055H8.09195ZM8.09195 4.69057V4.69055H7.69195V4.69057H8.09195ZM8.09195 4.69059V4.69057H7.69195V4.69059H8.09195ZM8.09554 5.18963C8.09065 5.01725 8.09131 4.84994 8.09195 4.69139L7.69196 4.68978C7.69132 4.84752 7.6906 5.02112 7.6957 5.20096L8.09554 5.18963ZM6.47002 8.72475C7.21937 8.40909 7.62525 7.80566 7.84226 7.14871C8.05753 6.49703 8.09261 5.77761 8.09561 5.19633L7.69562 5.19426C7.69265 5.7682 7.65691 6.43456 7.46245 7.02325C7.26972 7.60668 6.92697 8.09822 6.31473 8.35612L6.47002 8.72475ZM4.69238 7.04044C4.69238 7.49326 4.80588 8.02853 5.08283 8.39947C5.22399 8.58855 5.41298 8.74144 5.6555 8.8085C5.89851 8.87569 6.17202 8.85028 6.47002 8.72475L6.31473 8.35612C6.08034 8.45486 5.90016 8.46114 5.76211 8.42297C5.62355 8.38465 5.50409 8.2951 5.40335 8.16017C5.19649 7.8831 5.09238 7.44411 5.09238 7.04044H4.69238ZM4.98438 7.21858L4.99641 7.21125L4.78834 6.86963L4.77631 6.87695L4.98438 7.21858ZM2.91413 5.23916C3.66356 5.15713 4.06938 5.38362 4.30734 5.70984C4.55983 6.05596 4.65213 6.552 4.68066 7.059L5.08003 7.03652C5.05064 6.51435 4.95467 5.91849 4.6305 5.4741C4.29181 5.00981 3.73261 4.74718 2.8706 4.84154L2.91413 5.23916ZM1.09236 7.54035C1.09236 7.03881 1.29893 6.48572 1.63918 6.0431C1.97992 5.59981 2.43521 5.29159 2.91413 5.23916L2.8706 4.84154C2.25151 4.9093 1.70679 5.29879 1.32204 5.79932C0.936789 6.3005 0.692364 6.93732 0.692364 7.54035H1.09236ZM1.71633 8.90309C1.33389 8.57272 1.09236 8.08485 1.09236 7.54035H0.692364C0.692364 8.20595 0.988191 8.80267 1.45485 9.20579L1.71633 8.90309ZM1.66205 9.24205L1.68962 9.22525L1.48155 8.88363L1.45398 8.90042L1.66205 9.24205ZM4.14074 12.1645C3.97983 11.4037 3.55819 10.7083 3.08455 10.1477C2.61059 9.58665 2.07316 9.14709 1.66091 8.89974L1.45511 9.24273C1.82708 9.46591 2.33138 9.87598 2.779 10.4058C3.22694 10.936 3.60672 11.5727 3.74939 12.2472L4.14074 12.1645ZM3.74735 12.236C3.75851 12.3092 3.77146 12.3834 3.7863 12.4581L4.17863 12.3802C4.16499 12.3115 4.15306 12.2432 4.14278 12.1757L3.74735 12.236ZM4.18863 12.4543C4.18615 12.4334 4.18346 12.4125 4.18056 12.3916L3.78436 12.4466C3.7869 12.4649 3.78925 12.4831 3.79141 12.5014L4.18863 12.4543ZM3.97232 12.2786L3.96794 12.2791L4.0121 12.6766L4.01649 12.6761L3.97232 12.2786ZM3.79874 12.5188C3.90808 13.0354 4.11075 13.5835 4.44388 14.0069C4.78129 14.4358 5.25699 14.7403 5.89236 14.7403V14.3403C5.40359 14.3403 5.03597 14.1126 4.75826 13.7596C4.47628 13.4012 4.29204 12.9177 4.19007 12.4359L3.79874 12.5188ZM5.89236 14.7403C6.69694 14.7403 7.23835 14.2546 7.57506 13.6538C7.90949 13.0571 8.05916 12.3225 8.08734 11.7426L7.68781 11.7232C7.66165 12.2616 7.52172 12.9308 7.22613 13.4582C6.93282 13.9816 6.5038 14.3403 5.89236 14.3403V14.7403ZM9.89238 8.34044C9.04631 8.34044 8.52494 8.91424 8.20893 9.59032C7.89338 10.2654 7.75623 11.0905 7.68874 11.7112L8.0864 11.7545C8.15275 11.1442 8.2846 10.3731 8.5713 9.7597C8.85753 9.14732 9.27165 8.74044 9.89238 8.74044V8.34044ZM12.0931 11.6256C12.024 10.9932 11.8784 10.1887 11.5584 9.53679C11.2374 8.88265 10.7167 8.34044 9.89238 8.34044V8.74044C10.4996 8.74044 10.9114 9.12636 11.1993 9.71301C11.4883 10.3019 11.6279 11.0509 11.6954 11.6691L12.0931 11.6256ZM12.1241 11.9636C12.1081 11.8577 12.098 11.7499 12.0941 11.6403L11.6944 11.6543C11.6987 11.7793 11.7103 11.9025 11.7286 12.0235L12.1241 11.9636ZM12.1307 12.0451L12.1258 11.9788L11.7269 12.0083L11.7318 12.0746L12.1307 12.0451ZM11.9197 11.8601L11.9139 11.8606L11.9487 12.2591L11.9545 12.2586L11.9197 11.8601ZM14.8924 14.3403C13.5114 14.3403 12.3635 13.3404 12.1341 12.025L11.7401 12.0937C12.0023 13.5973 13.3137 14.7403 14.8924 14.7403V14.3403ZM17.6924 11.5404C17.6923 13.0868 16.4387 14.3403 14.8924 14.3403V14.7403C16.6596 14.7403 18.0923 13.3077 18.0924 11.5404L17.6924 11.5404ZM18.6702 8.69598C18.27 9.15221 18.0214 9.56564 17.8757 10.0218C17.731 10.475 17.6924 10.9569 17.6924 11.5404H18.0924C18.0924 10.9711 18.1309 10.5378 18.2568 10.1435C18.3817 9.75219 18.5972 9.38579 18.9709 8.95975L18.6702 8.69598ZM20.9079 7.30161C20.4586 7.42622 20.0914 7.5504 19.7384 7.75924C19.3845 7.96861 19.0557 8.25652 18.6702 8.69598L18.9709 8.95975C19.3391 8.54007 19.6362 8.28448 19.9421 8.1035C20.2488 7.922 20.5752 7.80898 21.0148 7.68706L20.9079 7.30161ZM21.5432 7.13418C21.3467 7.20732 21.1413 7.26226 20.9291 7.29695L20.9936 7.69171C21.2317 7.65279 21.4622 7.59114 21.6827 7.50906L21.5432 7.13418ZM21.701 7.09164L21.5621 7.12821L21.6639 7.51504L21.8028 7.47846L21.701 7.09164ZM21.6066 7.42372L21.621 7.43624L21.8829 7.13386L21.8684 7.12135L21.6066 7.42372Z" fill="#228B22" mask="url(#path-2-inside-1_115_75)"/>
<defs>
<linearGradient id="paint0_linear_115_75" x1="26.1562" y1="5.15298" x2="26.1562" y2="15.1922" gradientUnits="userSpaceOnUse">
<stop stop-color="#32CD32"/>
<stop offset="0.64" stop-color="#228B22"/>
</linearGradient>
<linearGradient id="paint1_linear_115_75" x1="13.1508" y1="-3.63754" x2="13.1508" y2="13.9311" gradientUnits="userSpaceOnUse">
<stop stop-color="#32CD32"/>
<stop offset="0.64" stop-color="#228B22"/>
</linearGradient>
</defs>
</svg>
