<svg width="30" height="16" viewBox="0 0 30 16" fill="none" xmlns="http://www.w3.org/2000/svg">
<circle cx="25.8924" cy="11.4618" r="3.9" fill="url(#paint0_linear_115_48)" stroke="#FA1185" stroke-width="0.2"/>
<mask id="path-2-inside-1_115_48" fill="white">
<path fill-rule="evenodd" clip-rule="evenodd" d="M21.7375 7.19398C23.0029 6.66678 23.8924 5.41816 23.8924 3.96179C23.8924 2.0288 22.3254 0.461792 20.3924 0.461792C18.7594 0.461792 17.3877 1.58005 17.0012 3.09255L16.9948 3.08701C16.9738 3.14209 16.9462 3.28587 16.9071 3.4894C16.6987 4.57406 16.1644 7.35573 14.5707 7.45358C12.4014 7.58679 12.0971 5.7157 11.9267 4.66829C11.9148 4.59515 11.9036 4.52603 11.8924 4.46188H11.8924V4.46179C11.8924 3.35722 10.9969 2.46179 9.89236 2.46179C8.7878 2.46179 7.89236 3.35722 7.89236 4.46179C7.89236 4.5104 7.89216 4.56054 7.89195 4.61198V4.612V4.61202V4.61203C7.89131 4.77018 7.89063 4.94063 7.89562 5.11675C7.88964 6.27195 7.75397 7.88831 6.39237 8.46189C5.32761 8.91042 4.89238 7.81838 4.89238 6.96189L4.88035 6.96921C4.82242 5.94003 4.5038 4.78541 2.89236 4.9618C1.79435 5.08199 0.892365 6.35723 0.892365 7.4618C0.892365 8.06685 1.16104 8.60914 1.58559 8.97589L1.55801 8.99268C2.34223 9.46321 3.64148 10.6919 3.94507 12.1273C3.95578 12.1976 3.96822 12.2689 3.98246 12.3406C3.98518 12.3601 3.9877 12.3797 3.99002 12.3993L3.99441 12.3988C4.20572 13.3972 4.76822 14.4618 5.89236 14.4618C7.30837 14.4618 7.83323 12.7727 7.88757 11.6543C8.02141 10.4233 8.42558 8.46189 9.89238 8.46189C11.3238 8.46189 11.7576 10.3182 11.8942 11.5688C11.8983 11.686 11.9092 11.8015 11.9264 11.915L11.9313 11.9813L11.9371 11.9808C12.1829 13.3903 13.4125 14.4618 14.8924 14.4618C16.5492 14.4618 17.8923 13.1187 17.8924 11.4619C17.8924 10.309 18.0467 9.63159 18.8206 8.74931C19.5742 7.89017 20.0724 7.66232 20.9613 7.41578C21.1865 7.37897 21.4044 7.32068 21.613 7.24307L21.7519 7.2065L21.7375 7.19398Z"/>
</mask>
<path fill-rule="evenodd" clip-rule="evenodd" d="M21.7375 7.19398C23.0029 6.66678 23.8924 5.41816 23.8924 3.96179C23.8924 2.0288 22.3254 0.461792 20.3924 0.461792C18.7594 0.461792 17.3877 1.58005 17.0012 3.09255L16.9948 3.08701C16.9738 3.14209 16.9462 3.28587 16.9071 3.4894C16.6987 4.57406 16.1644 7.35573 14.5707 7.45358C12.4014 7.58679 12.0971 5.7157 11.9267 4.66829C11.9148 4.59515 11.9036 4.52603 11.8924 4.46188H11.8924V4.46179C11.8924 3.35722 10.9969 2.46179 9.89236 2.46179C8.7878 2.46179 7.89236 3.35722 7.89236 4.46179C7.89236 4.5104 7.89216 4.56054 7.89195 4.61198V4.612V4.61202V4.61203C7.89131 4.77018 7.89063 4.94063 7.89562 5.11675C7.88964 6.27195 7.75397 7.88831 6.39237 8.46189C5.32761 8.91042 4.89238 7.81838 4.89238 6.96189L4.88035 6.96921C4.82242 5.94003 4.5038 4.78541 2.89236 4.9618C1.79435 5.08199 0.892365 6.35723 0.892365 7.4618C0.892365 8.06685 1.16104 8.60914 1.58559 8.97589L1.55801 8.99268C2.34223 9.46321 3.64148 10.6919 3.94507 12.1273C3.95578 12.1976 3.96822 12.2689 3.98246 12.3406C3.98518 12.3601 3.9877 12.3797 3.99002 12.3993L3.99441 12.3988C4.20572 13.3972 4.76822 14.4618 5.89236 14.4618C7.30837 14.4618 7.83323 12.7727 7.88757 11.6543C8.02141 10.4233 8.42558 8.46189 9.89238 8.46189C11.3238 8.46189 11.7576 10.3182 11.8942 11.5688C11.8983 11.686 11.9092 11.8015 11.9264 11.915L11.9313 11.9813L11.9371 11.9808C12.1829 13.3903 13.4125 14.4618 14.8924 14.4618C16.5492 14.4618 17.8923 13.1187 17.8924 11.4619C17.8924 10.309 18.0467 9.63159 18.8206 8.74931C19.5742 7.89017 20.0724 7.66232 20.9613 7.41578C21.1865 7.37897 21.4044 7.32068 21.613 7.24307L21.7519 7.2065L21.7375 7.19398Z" fill="url(#paint1_linear_115_48)"/>
<path d="M21.7375 7.19398L21.6606 7.00937L21.3623 7.13364L21.6066 7.34517L21.7375 7.19398ZM17.0012 3.09255L16.8702 3.24374L17.1148 3.45554L17.1949 3.14207L17.0012 3.09255ZM16.9948 3.08701L17.1257 2.93581L16.9096 2.74871L16.8079 3.0158L16.9948 3.08701ZM16.9071 3.4894L17.1035 3.52712L17.1035 3.52712L16.9071 3.4894ZM14.5707 7.45358L14.5585 7.25396L14.5585 7.25396L14.5707 7.45358ZM11.9267 4.66829L12.1241 4.63618L12.1241 4.63618L11.9267 4.66829ZM11.8924 4.46188L12.0894 4.42754L12.0605 4.26188H11.8924V4.46188ZM11.8924 4.46188H11.6924V4.66188H11.8924V4.46188ZM7.89195 4.61198L7.69195 4.61117V4.61198H7.89195ZM7.89195 4.61203L8.09195 4.61284V4.61203H7.89195ZM7.89562 5.11675L8.09573 5.11778L8.09554 5.11108L7.89562 5.11675ZM6.39237 8.46189L6.47002 8.6462L6.47002 8.6462L6.39237 8.46189ZM4.89238 6.96189H5.09238V6.6059L4.78834 6.79107L4.89238 6.96189ZM4.88035 6.96921L4.68066 6.98045L4.69941 7.31359L4.98438 7.14002L4.88035 6.96921ZM2.89236 4.9618L2.8706 4.76299L2.8706 4.76299L2.89236 4.9618ZM1.58559 8.97589L1.68962 9.1467L1.92401 9.00394L1.71633 8.82454L1.58559 8.97589ZM1.55801 8.99268L1.45398 8.82187L1.17142 8.99397L1.45511 9.16418L1.55801 8.99268ZM3.94507 12.1273L4.14311 12.0971L4.14074 12.0859L3.94507 12.1273ZM3.98246 12.3406L4.1809 12.313L4.17863 12.3016L3.98246 12.3406ZM3.99002 12.3993L3.79141 12.4228L3.81478 12.62L4.0121 12.5981L3.99002 12.3993ZM3.99441 12.3988L4.19007 12.3574L4.15253 12.18L3.97232 12.2L3.99441 12.3988ZM7.88757 11.6543L7.68839 11.6327L7.68781 11.6446L7.88757 11.6543ZM11.8942 11.5688L12.0941 11.5618L12.0939 11.5544L12.0931 11.5471L11.8942 11.5688ZM11.9264 11.915L12.1258 11.9002L12.1253 11.8926L12.1241 11.885L11.9264 11.915ZM11.9313 11.9813L11.7318 11.9961L11.7468 12.1982L11.9487 12.1806L11.9313 11.9813ZM11.9371 11.9808L12.1341 11.9465L12.1026 11.7656L11.9197 11.7816L11.9371 11.9808ZM17.8924 11.4619L18.0924 11.4619V11.4619H17.8924ZM18.8206 8.74931L18.6702 8.61742L18.6702 8.61742L18.8206 8.74931ZM20.9613 7.41578L20.9291 7.2184L20.9183 7.22015L20.9079 7.22306L20.9613 7.41578ZM21.613 7.24307L21.5621 7.04966L21.5525 7.05218L21.5432 7.05563L21.613 7.24307ZM21.7519 7.2065L21.8028 7.39991L22.1694 7.30344L21.8829 7.05531L21.7519 7.2065ZM23.6924 3.96179C23.6924 5.33463 22.854 6.51213 21.6606 7.00937L21.8144 7.3786C23.1517 6.82143 24.0924 5.5017 24.0924 3.96179H23.6924ZM20.3924 0.661792C22.2149 0.661792 23.6924 2.13925 23.6924 3.96179H24.0924C24.0924 1.91834 22.4358 0.261792 20.3924 0.261792V0.661792ZM17.1949 3.14207C17.5594 1.71596 18.853 0.661792 20.3924 0.661792V0.261792C18.6659 0.261792 17.216 1.44414 16.8074 3.04303L17.1949 3.14207ZM16.8638 3.2382L16.8702 3.24374L17.1321 2.94136L17.1257 2.93581L16.8638 3.2382ZM17.1035 3.52712C17.1231 3.42468 17.1394 3.33992 17.1534 3.27385C17.1684 3.20295 17.1777 3.1687 17.1817 3.15821L16.8079 3.0158C16.7909 3.06039 16.7759 3.12558 16.762 3.19122C16.7471 3.26169 16.7301 3.35058 16.7106 3.45167L17.1035 3.52712ZM14.583 7.65321C15.5065 7.5965 16.0815 6.768 16.4424 5.91986C16.8108 5.05416 16.9997 4.06723 17.1035 3.52712L16.7106 3.45167C16.6061 3.99623 16.4236 4.94246 16.0744 5.76323C15.7176 6.60155 15.2286 7.21281 14.5585 7.25396L14.583 7.65321ZM11.7293 4.7004C11.8134 5.21747 11.9362 5.98853 12.3301 6.61066C12.5298 6.92602 12.8014 7.2075 13.1749 7.3997C13.5483 7.59189 14.0111 7.68833 14.583 7.65321L14.5585 7.25396C14.0457 7.28544 13.6569 7.19794 13.3579 7.04404C13.0589 6.89014 12.8369 6.66336 12.6681 6.39667C12.3249 5.85471 12.2104 5.16652 12.1241 4.63618L11.7293 4.7004ZM11.6953 4.49623C11.7063 4.55905 11.7174 4.627 11.7293 4.7004L12.1241 4.63618C12.1122 4.5633 12.1008 4.49301 12.0894 4.42754L11.6953 4.49623ZM11.8924 4.66188H11.8924V4.26188H11.8924V4.66188ZM11.6924 4.46179V4.46188H12.0924V4.46179H11.6924ZM9.89236 2.66179C10.8865 2.66179 11.6924 3.46768 11.6924 4.46179H12.0924C12.0924 3.24677 11.1074 2.26179 9.89236 2.26179V2.66179ZM8.09236 4.46179C8.09236 3.46768 8.89825 2.66179 9.89236 2.66179V2.26179C8.67734 2.26179 7.69236 3.24677 7.69236 4.46179H8.09236ZM8.09195 4.61279C8.09216 4.56143 8.09236 4.51088 8.09236 4.46179H7.69236C7.69236 4.50992 7.69216 4.55965 7.69196 4.61117L8.09195 4.61279ZM8.09195 4.612V4.61198H7.69195V4.612H8.09195ZM8.09195 4.61202V4.612H7.69195V4.61202H8.09195ZM8.09195 4.61203V4.61202H7.69195V4.61203H8.09195ZM8.09554 5.11108C8.09065 4.93869 8.09131 4.77139 8.09195 4.61284L7.69196 4.61123C7.69132 4.76897 7.6906 4.94257 7.6957 5.12241L8.09554 5.11108ZM6.47002 8.6462C7.21937 8.33053 7.62525 7.72711 7.84226 7.07016C8.05753 6.41848 8.09261 5.69905 8.09561 5.11778L7.69562 5.11571C7.69265 5.68964 7.65691 6.356 7.46245 6.9447C7.26972 7.52812 6.92697 8.01966 6.31473 8.27757L6.47002 8.6462ZM4.69238 6.96189C4.69238 7.41471 4.80588 7.94998 5.08283 8.32092C5.22399 8.50999 5.41298 8.66289 5.6555 8.72995C5.89851 8.79714 6.17202 8.77173 6.47002 8.6462L6.31473 8.27757C6.08034 8.37631 5.90016 8.38259 5.76211 8.34441C5.62355 8.3061 5.50409 8.21655 5.40335 8.08162C5.19649 7.80455 5.09238 7.36556 5.09238 6.96189H4.69238ZM4.98438 7.14002L4.99641 7.1327L4.78834 6.79107L4.77631 6.7984L4.98438 7.14002ZM2.91413 5.16061C3.66356 5.07858 4.06938 5.30507 4.30734 5.63128C4.55983 5.97741 4.65213 6.47345 4.68066 6.98045L5.08003 6.95797C5.05064 6.43579 4.95467 5.83994 4.6305 5.39555C4.29181 4.93126 3.73261 4.66863 2.8706 4.76299L2.91413 5.16061ZM1.09236 7.4618C1.09236 6.96026 1.29893 6.40717 1.63918 5.96454C1.97992 5.52126 2.43521 5.21303 2.91413 5.16061L2.8706 4.76299C2.25151 4.83075 1.70679 5.22024 1.32204 5.72077C0.936789 6.22195 0.692364 6.85877 0.692364 7.4618H1.09236ZM1.71633 8.82454C1.33389 8.49417 1.09236 8.0063 1.09236 7.4618H0.692364C0.692364 8.12739 0.988191 8.72412 1.45485 9.12724L1.71633 8.82454ZM1.66205 9.1635L1.68962 9.1467L1.48155 8.80508L1.45398 8.82187L1.66205 9.1635ZM4.14074 12.0859C3.97983 11.3251 3.55819 10.6297 3.08455 10.0691C2.61059 9.5081 2.07316 9.06853 1.66091 8.82118L1.45511 9.16418C1.82708 9.38736 2.33138 9.79742 2.779 10.3272C3.22694 10.8575 3.60672 11.4941 3.74939 12.1687L4.14074 12.0859ZM3.74735 12.1574C3.75851 12.2307 3.77146 12.3049 3.7863 12.3795L4.17863 12.3016C4.16499 12.2329 4.15306 12.1646 4.14278 12.0972L3.74735 12.1574ZM4.18863 12.3758C4.18615 12.3548 4.18346 12.3339 4.18056 12.3131L3.78436 12.3681C3.7869 12.3863 3.78925 12.4046 3.79141 12.4228L4.18863 12.3758ZM3.97232 12.2L3.96794 12.2005L4.0121 12.5981L4.01649 12.5976L3.97232 12.2ZM3.79874 12.4402C3.90808 12.9568 4.11075 13.5049 4.44388 13.9284C4.78129 14.3572 5.25699 14.6618 5.89236 14.6618V14.2618C5.40359 14.2618 5.03597 14.0341 4.75826 13.681C4.47628 13.3226 4.29204 12.8392 4.19007 12.3574L3.79874 12.4402ZM5.89236 14.6618C6.69694 14.6618 7.23835 14.176 7.57506 13.5752C7.90949 12.9785 8.05916 12.244 8.08734 11.664L7.68781 11.6446C7.66165 12.183 7.52172 12.8522 7.22613 13.3797C6.93282 13.903 6.5038 14.2618 5.89236 14.2618V14.6618ZM9.89238 8.26189C9.04631 8.26189 8.52494 8.83569 8.20893 9.51177C7.89338 10.1869 7.75623 11.0119 7.68874 11.6327L8.0864 11.6759C8.15275 11.0656 8.2846 10.2945 8.5713 9.68114C8.85753 9.06877 9.27165 8.66189 9.89238 8.66189V8.26189ZM12.0931 11.5471C12.024 10.9146 11.8784 10.1102 11.5584 9.45824C11.2374 8.8041 10.7167 8.26189 9.89238 8.26189V8.66189C10.4996 8.66189 10.9114 9.04781 11.1993 9.63446C11.4883 10.2233 11.6279 10.9723 11.6954 11.5905L12.0931 11.5471ZM12.1241 11.885C12.1081 11.7792 12.098 11.6713 12.0941 11.5618L11.6944 11.5758C11.6987 11.7007 11.7103 11.8239 11.7286 11.9449L12.1241 11.885ZM12.1307 11.9666L12.1258 11.9002L11.7269 11.9297L11.7318 11.9961L12.1307 11.9666ZM11.9197 11.7816L11.9139 11.7821L11.9487 12.1806L11.9545 12.1801L11.9197 11.7816ZM14.8924 14.2618C13.5114 14.2618 12.3635 13.2618 12.1341 11.9465L11.7401 12.0152C12.0023 13.5188 13.3137 14.6618 14.8924 14.6618V14.2618ZM17.6924 11.4619C17.6923 13.0082 16.4387 14.2618 14.8924 14.2618V14.6618C16.6596 14.6618 18.0923 13.2292 18.0924 11.4619L17.6924 11.4619ZM18.6702 8.61742C18.27 9.07366 18.0214 9.48709 17.8757 9.94327C17.731 10.3964 17.6924 10.8784 17.6924 11.4619H18.0924C18.0924 10.8925 18.1309 10.4593 18.2568 10.0649C18.3817 9.67364 18.5972 9.30724 18.9709 8.8812L18.6702 8.61742ZM20.9079 7.22306C20.4586 7.34767 20.0914 7.47185 19.7384 7.68069C19.3845 7.89006 19.0557 8.17797 18.6702 8.61742L18.9709 8.8812C19.3391 8.46151 19.6362 8.20593 19.9421 8.02495C20.2488 7.84345 20.5752 7.73043 21.0148 7.60851L20.9079 7.22306ZM21.5432 7.05563C21.3467 7.12876 21.1413 7.1837 20.9291 7.2184L20.9936 7.61316C21.2317 7.57424 21.4622 7.51259 21.6827 7.43051L21.5432 7.05563ZM21.701 7.01308L21.5621 7.04966L21.6639 7.43648L21.8028 7.39991L21.701 7.01308ZM21.6066 7.34517L21.621 7.35769L21.8829 7.05531L21.8684 7.04279L21.6066 7.34517Z" fill="#FA1185" mask="url(#path-2-inside-1_115_48)"/>
<defs>
<linearGradient id="paint0_linear_115_48" x1="26.1562" y1="5.07443" x2="26.1562" y2="15.1137" gradientUnits="userSpaceOnUse">
<stop stop-color="#FF69B4"/>
<stop offset="0.64" stop-color="#FF1493"/>
</linearGradient>
<linearGradient id="paint1_linear_115_48" x1="13.1508" y1="-3.71609" x2="13.1508" y2="13.8525" gradientUnits="userSpaceOnUse">
<stop stop-color="#FF69B4"/>
<stop offset="0.64" stop-color="#FF1493"/>
</linearGradient>
</defs>
</svg>
