<svg width="30" height="16" viewBox="0 0 30 16" fill="none" xmlns="http://www.w3.org/2000/svg">
<circle cx="25.8924" cy="11.5142" r="3.9" fill="url(#paint0_linear_115_66)" stroke="#FF9B00" stroke-width="0.2"/>
<mask id="path-2-inside-1_115_66" fill="white">
<path fill-rule="evenodd" clip-rule="evenodd" d="M21.7375 7.24635C23.0029 6.71915 23.8924 5.47053 23.8924 4.01416C23.8924 2.08116 22.3254 0.51416 20.3924 0.51416C18.7594 0.51416 17.3877 1.63242 17.0012 3.14492L16.9948 3.13937C16.9738 3.19446 16.9462 3.33824 16.9071 3.54176C16.6987 4.62643 16.1644 7.40809 14.5707 7.50595C12.4014 7.63915 12.0971 5.76807 11.9267 4.72066C11.9148 4.64752 11.9036 4.5784 11.8924 4.51425H11.8924V4.51416C11.8924 3.40959 10.9969 2.51416 9.89236 2.51416C8.7878 2.51416 7.89236 3.40959 7.89236 4.51416C7.89236 4.56277 7.89216 4.61291 7.89195 4.66435V4.66437V4.66439V4.6644C7.89131 4.82255 7.89063 4.993 7.89562 5.16911C7.88964 6.32432 7.75397 7.94068 6.39237 8.51425C5.32761 8.96279 4.89238 7.87075 4.89238 7.01425L4.88035 7.02158C4.82242 5.9924 4.5038 4.83778 2.89236 5.01417C1.79435 5.13435 0.892365 6.4096 0.892365 7.51417C0.892365 8.11922 1.16104 8.66151 1.58559 9.02826L1.55801 9.04505C2.34223 9.51558 3.64148 10.7443 3.94507 12.1797C3.95578 12.25 3.96822 12.3212 3.98246 12.3929C3.98518 12.4125 3.9877 12.4321 3.99002 12.4517L3.99441 12.4512C4.20572 13.4496 4.76822 14.5142 5.89236 14.5142C7.30837 14.5142 7.83323 12.8251 7.88757 11.7067C8.02141 10.4756 8.42558 8.51425 9.89238 8.51425C11.3238 8.51425 11.7576 10.3705 11.8942 11.6212C11.8983 11.7384 11.9092 11.8539 11.9264 11.9673L11.9313 12.0337L11.9371 12.0332C12.1829 13.4427 13.4125 14.5142 14.8924 14.5142C16.5492 14.5142 17.8923 13.1711 17.8924 11.5143C17.8924 10.3613 18.0467 9.68396 18.8206 8.80168C19.5742 7.94254 20.0724 7.71469 20.9613 7.46815C21.1865 7.43134 21.4044 7.37305 21.613 7.29544L21.7519 7.25886L21.7375 7.24635Z"/>
</mask>
<path fill-rule="evenodd" clip-rule="evenodd" d="M21.7375 7.24635C23.0029 6.71915 23.8924 5.47053 23.8924 4.01416C23.8924 2.08116 22.3254 0.51416 20.3924 0.51416C18.7594 0.51416 17.3877 1.63242 17.0012 3.14492L16.9948 3.13937C16.9738 3.19446 16.9462 3.33824 16.9071 3.54176C16.6987 4.62643 16.1644 7.40809 14.5707 7.50595C12.4014 7.63915 12.0971 5.76807 11.9267 4.72066C11.9148 4.64752 11.9036 4.5784 11.8924 4.51425H11.8924V4.51416C11.8924 3.40959 10.9969 2.51416 9.89236 2.51416C8.7878 2.51416 7.89236 3.40959 7.89236 4.51416C7.89236 4.56277 7.89216 4.61291 7.89195 4.66435V4.66437V4.66439V4.6644C7.89131 4.82255 7.89063 4.993 7.89562 5.16911C7.88964 6.32432 7.75397 7.94068 6.39237 8.51425C5.32761 8.96279 4.89238 7.87075 4.89238 7.01425L4.88035 7.02158C4.82242 5.9924 4.5038 4.83778 2.89236 5.01417C1.79435 5.13435 0.892365 6.4096 0.892365 7.51417C0.892365 8.11922 1.16104 8.66151 1.58559 9.02826L1.55801 9.04505C2.34223 9.51558 3.64148 10.7443 3.94507 12.1797C3.95578 12.25 3.96822 12.3212 3.98246 12.3929C3.98518 12.4125 3.9877 12.4321 3.99002 12.4517L3.99441 12.4512C4.20572 13.4496 4.76822 14.5142 5.89236 14.5142C7.30837 14.5142 7.83323 12.8251 7.88757 11.7067C8.02141 10.4756 8.42558 8.51425 9.89238 8.51425C11.3238 8.51425 11.7576 10.3705 11.8942 11.6212C11.8983 11.7384 11.9092 11.8539 11.9264 11.9673L11.9313 12.0337L11.9371 12.0332C12.1829 13.4427 13.4125 14.5142 14.8924 14.5142C16.5492 14.5142 17.8923 13.1711 17.8924 11.5143C17.8924 10.3613 18.0467 9.68396 18.8206 8.80168C19.5742 7.94254 20.0724 7.71469 20.9613 7.46815C21.1865 7.43134 21.4044 7.37305 21.613 7.29544L21.7519 7.25886L21.7375 7.24635Z" fill="url(#paint1_linear_115_66)"/>
<path d="M21.7375 7.24635L21.6606 7.06173L21.3623 7.18601L21.6066 7.39754L21.7375 7.24635ZM17.0012 3.14492L16.8702 3.29611L17.1148 3.50791L17.1949 3.19444L17.0012 3.14492ZM16.9948 3.13937L17.1257 2.98818L16.9096 2.80108L16.8079 3.06817L16.9948 3.13937ZM16.9071 3.54176L17.1035 3.57949L17.1035 3.57949L16.9071 3.54176ZM14.5707 7.50595L14.5585 7.30633L14.5585 7.30633L14.5707 7.50595ZM11.9267 4.72066L12.1241 4.68855L12.1241 4.68855L11.9267 4.72066ZM11.8924 4.51425L12.0894 4.47991L12.0605 4.31425H11.8924V4.51425ZM11.8924 4.51425H11.6924V4.71425H11.8924V4.51425ZM7.89195 4.66435L7.69195 4.66354V4.66435H7.89195ZM7.89195 4.6644L8.09195 4.66521V4.6644H7.89195ZM7.89562 5.16911L8.09573 5.17015L8.09554 5.16345L7.89562 5.16911ZM6.39237 8.51425L6.47002 8.69857L6.47002 8.69857L6.39237 8.51425ZM4.89238 7.01425H5.09238V6.65826L4.78834 6.84344L4.89238 7.01425ZM4.88035 7.02158L4.68066 7.03282L4.69941 7.36596L4.98438 7.19239L4.88035 7.02158ZM2.89236 5.01417L2.8706 4.81535L2.8706 4.81535L2.89236 5.01417ZM1.58559 9.02826L1.68962 9.19907L1.92401 9.05631L1.71633 8.87691L1.58559 9.02826ZM1.55801 9.04505L1.45398 8.87424L1.17142 9.04633L1.45511 9.21655L1.55801 9.04505ZM3.94507 12.1797L4.14311 12.1495L4.14074 12.1383L3.94507 12.1797ZM3.98246 12.3929L4.1809 12.3654L4.17863 12.354L3.98246 12.3929ZM3.99002 12.4517L3.79141 12.4752L3.81478 12.6724L4.0121 12.6504L3.99002 12.4517ZM3.99441 12.4512L4.19007 12.4098L4.15253 12.2324L3.97232 12.2524L3.99441 12.4512ZM7.88757 11.7067L7.68839 11.685L7.68781 11.697L7.88757 11.7067ZM11.8942 11.6212L12.0941 11.6142L12.0939 11.6068L12.0931 11.5994L11.8942 11.6212ZM11.9264 11.9673L12.1258 11.9526L12.1253 11.9449L12.1241 11.9374L11.9264 11.9673ZM11.9313 12.0337L11.7318 12.0485L11.7468 12.2505L11.9487 12.2329L11.9313 12.0337ZM11.9371 12.0332L12.1341 11.9988L12.1026 11.818L11.9197 11.8339L11.9371 12.0332ZM17.8924 11.5143L18.0924 11.5143V11.5143H17.8924ZM18.8206 8.80168L18.6702 8.66979L18.6702 8.66979L18.8206 8.80168ZM20.9613 7.46815L20.9291 7.27077L20.9183 7.27252L20.9079 7.27542L20.9613 7.46815ZM21.613 7.29544L21.5621 7.10203L21.5525 7.10455L21.5432 7.108L21.613 7.29544ZM21.7519 7.25886L21.8028 7.45228L22.1694 7.35581L21.8829 7.10768L21.7519 7.25886ZM23.6924 4.01416C23.6924 5.387 22.854 6.56449 21.6606 7.06173L21.8144 7.43097C23.1517 6.8738 24.0924 5.55407 24.0924 4.01416H23.6924ZM20.3924 0.71416C22.2149 0.71416 23.6924 2.19162 23.6924 4.01416H24.0924C24.0924 1.97071 22.4358 0.31416 20.3924 0.31416V0.71416ZM17.1949 3.19444C17.5594 1.76833 18.853 0.71416 20.3924 0.71416V0.31416C18.6659 0.31416 17.216 1.49651 16.8074 3.09539L17.1949 3.19444ZM16.8638 3.29057L16.8702 3.29611L17.1321 2.99372L17.1257 2.98818L16.8638 3.29057ZM17.1035 3.57949C17.1231 3.47705 17.1394 3.39229 17.1534 3.32622C17.1684 3.25531 17.1777 3.22107 17.1817 3.21058L16.8079 3.06817C16.7909 3.11276 16.7759 3.17795 16.762 3.24359C16.7471 3.31406 16.7301 3.40295 16.7106 3.50404L17.1035 3.57949ZM14.583 7.70558C15.5065 7.64887 16.0815 6.82036 16.4424 5.97222C16.8108 5.10653 16.9997 4.1196 17.1035 3.57949L16.7106 3.50404C16.6061 4.04859 16.4236 4.99483 16.0744 5.8156C15.7176 6.65392 15.2286 7.26518 14.5585 7.30633L14.583 7.70558ZM11.7293 4.75277C11.8134 5.26984 11.9362 6.04089 12.3301 6.66303C12.5298 6.97839 12.8014 7.25987 13.1749 7.45207C13.5483 7.64426 14.0111 7.74069 14.583 7.70558L14.5585 7.30633C14.0457 7.33781 13.6569 7.25031 13.3579 7.09641C13.0589 6.94251 12.8369 6.71573 12.6681 6.44904C12.3249 5.90708 12.2104 5.21889 12.1241 4.68855L11.7293 4.75277ZM11.6953 4.54859C11.7063 4.61141 11.7174 4.67937 11.7293 4.75277L12.1241 4.68855C12.1122 4.61567 12.1008 4.54538 12.0894 4.47991L11.6953 4.54859ZM11.8924 4.71425H11.8924V4.31425H11.8924V4.71425ZM11.6924 4.51416V4.51425H12.0924V4.51416H11.6924ZM9.89236 2.71416C10.8865 2.71416 11.6924 3.52005 11.6924 4.51416H12.0924C12.0924 3.29913 11.1074 2.31416 9.89236 2.31416V2.71416ZM8.09236 4.51416C8.09236 3.52005 8.89825 2.71416 9.89236 2.71416V2.31416C8.67734 2.31416 7.69236 3.29913 7.69236 4.51416H8.09236ZM8.09195 4.66516C8.09216 4.6138 8.09236 4.56324 8.09236 4.51416H7.69236C7.69236 4.56229 7.69216 4.61202 7.69196 4.66354L8.09195 4.66516ZM8.09195 4.66437V4.66435H7.69195V4.66437H8.09195ZM8.09195 4.66439V4.66437H7.69195V4.66439H8.09195ZM8.09195 4.6644V4.66439H7.69195V4.6644H8.09195ZM8.09554 5.16345C8.09065 4.99106 8.09131 4.82375 8.09195 4.66521L7.69196 4.66359C7.69132 4.82134 7.6906 4.99494 7.6957 5.17478L8.09554 5.16345ZM6.47002 8.69857C7.21937 8.3829 7.62525 7.77948 7.84226 7.12253C8.05753 6.47084 8.09261 5.75142 8.09561 5.17015L7.69562 5.16808C7.69265 5.74201 7.65691 6.40837 7.46245 6.99706C7.26972 7.58049 6.92697 8.07203 6.31473 8.32994L6.47002 8.69857ZM4.69238 7.01425C4.69238 7.46707 4.80588 8.00235 5.08283 8.37329C5.22399 8.56236 5.41298 8.71525 5.6555 8.78231C5.89851 8.84951 6.17202 8.8241 6.47002 8.69857L6.31473 8.32994C6.08034 8.42868 5.90016 8.43496 5.76211 8.39678C5.62355 8.35847 5.50409 8.26892 5.40335 8.13399C5.19649 7.85692 5.09238 7.41792 5.09238 7.01425H4.69238ZM4.98438 7.19239L4.99641 7.18507L4.78834 6.84344L4.77631 6.85077L4.98438 7.19239ZM2.91413 5.21298C3.66356 5.13095 4.06938 5.35744 4.30734 5.68365C4.55983 6.02977 4.65213 6.52582 4.68066 7.03282L5.08003 7.01034C5.05064 6.48816 4.95467 5.89231 4.6305 5.44792C4.29181 4.98362 3.73261 4.721 2.8706 4.81535L2.91413 5.21298ZM1.09236 7.51417C1.09236 7.01263 1.29893 6.45954 1.63918 6.01691C1.97992 5.57363 2.43521 5.2654 2.91413 5.21298L2.8706 4.81535C2.25151 4.88312 1.70679 5.27261 1.32204 5.77314C0.936789 6.27432 0.692364 6.91114 0.692364 7.51417H1.09236ZM1.71633 8.87691C1.33389 8.54653 1.09236 8.05867 1.09236 7.51417H0.692364C0.692364 8.17976 0.988191 8.77649 1.45485 9.17961L1.71633 8.87691ZM1.66205 9.21586L1.68962 9.19907L1.48155 8.85744L1.45398 8.87424L1.66205 9.21586ZM4.14074 12.1383C3.97983 11.3775 3.55819 10.6821 3.08455 10.1215C2.61059 9.56046 2.07316 9.1209 1.66091 8.87355L1.45511 9.21655C1.82708 9.43973 2.33138 9.84979 2.779 10.3796C3.22694 10.9098 3.60672 11.5465 3.74939 12.221L4.14074 12.1383ZM3.74735 12.2098C3.75851 12.283 3.77146 12.3572 3.7863 12.4319L4.17863 12.354C4.16499 12.2853 4.15306 12.217 4.14278 12.1495L3.74735 12.2098ZM4.18863 12.4281C4.18615 12.4072 4.18346 12.3863 4.18056 12.3654L3.78436 12.4205C3.7869 12.4387 3.78925 12.4569 3.79141 12.4752L4.18863 12.4281ZM3.97232 12.2524L3.96794 12.2529L4.0121 12.6504L4.01649 12.6499L3.97232 12.2524ZM3.79874 12.4926C3.90808 13.0092 4.11075 13.5573 4.44388 13.9807C4.78129 14.4096 5.25699 14.7142 5.89236 14.7142V14.3142C5.40359 14.3142 5.03597 14.0864 4.75826 13.7334C4.47628 13.375 4.29204 12.8916 4.19007 12.4098L3.79874 12.4926ZM5.89236 14.7142C6.69694 14.7142 7.23835 14.2284 7.57506 13.6276C7.90949 13.0309 8.05916 12.2964 8.08734 11.7164L7.68781 11.697C7.66165 12.2354 7.52172 12.9046 7.22613 13.432C6.93282 13.9554 6.5038 14.3142 5.89236 14.3142V14.7142ZM9.89238 8.31425C9.04631 8.31425 8.52494 8.88806 8.20893 9.56413C7.89338 10.2392 7.75623 11.0643 7.68874 11.6851L8.0864 11.7283C8.15275 11.118 8.2846 10.3469 8.5713 9.73351C8.85753 9.12114 9.27165 8.71425 9.89238 8.71425V8.31425ZM12.0931 11.5994C12.024 10.967 11.8784 10.1626 11.5584 9.51061C11.2374 8.85647 10.7167 8.31425 9.89238 8.31425V8.71425C10.4996 8.71425 10.9114 9.10018 11.1993 9.68683C11.4883 10.2757 11.6279 11.0247 11.6954 11.6429L12.0931 11.5994ZM12.1241 11.9374C12.1081 11.8315 12.098 11.7237 12.0941 11.6142L11.6944 11.6282C11.6987 11.7531 11.7103 11.8763 11.7286 11.9973L12.1241 11.9374ZM12.1307 12.0189L12.1258 11.9526L11.7269 11.9821L11.7318 12.0485L12.1307 12.0189ZM11.9197 11.8339L11.9139 11.8344L11.9487 12.2329L11.9545 12.2324L11.9197 11.8339ZM14.8924 14.3142C13.5114 14.3142 12.3635 13.3142 12.1341 11.9988L11.7401 12.0675C12.0023 13.5711 13.3137 14.7142 14.8924 14.7142V14.3142ZM17.6924 11.5142C17.6923 13.0606 16.4387 14.3142 14.8924 14.3142V14.7142C16.6596 14.7142 18.0923 13.2815 18.0924 11.5143L17.6924 11.5142ZM18.6702 8.66979C18.27 9.12603 18.0214 9.53946 17.8757 9.99564C17.731 10.4488 17.6924 10.9307 17.6924 11.5143H18.0924C18.0924 10.9449 18.1309 10.5117 18.2568 10.1173C18.3817 9.72601 18.5972 9.35961 18.9709 8.93357L18.6702 8.66979ZM20.9079 7.27542C20.4586 7.40004 20.0914 7.52422 19.7384 7.73306C19.3845 7.94243 19.0557 8.23034 18.6702 8.66979L18.9709 8.93357C19.3391 8.51388 19.6362 8.2583 19.9421 8.07732C20.2488 7.89581 20.5752 7.7828 21.0148 7.66087L20.9079 7.27542ZM21.5432 7.108C21.3467 7.18113 21.1413 7.23607 20.9291 7.27077L20.9936 7.66553C21.2317 7.62661 21.4622 7.56496 21.6827 7.48288L21.5432 7.108ZM21.701 7.06545L21.5621 7.10203L21.6639 7.48885L21.8028 7.45228L21.701 7.06545ZM21.6066 7.39754L21.621 7.41005L21.8829 7.10768L21.8684 7.09516L21.6066 7.39754Z" fill="#FF9B00" mask="url(#path-2-inside-1_115_66)"/>
<defs>
<linearGradient id="paint0_linear_115_66" x1="26.1562" y1="5.1268" x2="26.1562" y2="15.166" gradientUnits="userSpaceOnUse">
<stop stop-color="#EED864"/>
<stop offset="0.64" stop-color="#FF9B00"/>
</linearGradient>
<linearGradient id="paint1_linear_115_66" x1="13.1508" y1="-3.66372" x2="13.1508" y2="13.9049" gradientUnits="userSpaceOnUse">
<stop stop-color="#EED864"/>
<stop offset="0.64" stop-color="#FF9B00"/>
</linearGradient>
</defs>
</svg>
