<svg width="29" height="15" viewBox="0 0 29 15" fill="none" xmlns="http://www.w3.org/2000/svg">
<circle cx="25" cy="11" r="3.9" fill="url(#paint0_linear_36_26)" stroke="black" stroke-width="0.2"/>
<mask id="path-2-inside-1_36_26" fill="white">
<path fill-rule="evenodd" clip-rule="evenodd" d="M20.8451 6.73219C22.1105 6.20499 23 4.95637 23 3.5C23 1.567 21.433 0 19.5 0C17.8671 0 16.4953 1.11826 16.1088 2.63075L16.1024 2.62521C16.0814 2.6803 16.0538 2.82408 16.0147 3.0276C15.8064 4.11227 15.272 6.89393 13.6783 6.99179C11.5091 7.12499 11.2047 5.25391 11.0343 4.2065C11.0224 4.13336 11.0112 4.06424 11 4.00009H11V4C11 2.89543 10.1046 2 9 2C7.89543 2 7 2.89543 7 4C7 4.04861 6.9998 4.09875 6.99959 4.15019V4.15021V4.15023V4.15024C6.99895 4.30839 6.99826 4.47884 7.00325 4.65495C6.99728 5.81016 6.86161 7.42652 5.50001 8.00009C4.43524 8.44863 4.00001 7.35659 4.00001 6.50009L3.98798 6.50742C3.93006 5.47824 3.61143 4.32362 2 4.50001C0.901989 4.62019 0 5.89544 0 7.00001C0 7.60505 0.268674 8.14735 0.693225 8.5141L0.665649 8.53089C1.44986 9.00142 2.74912 10.2301 3.0527 11.6655C3.06342 11.7359 3.07586 11.8071 3.0901 11.8788C3.09281 11.8983 3.09533 11.9179 3.09766 11.9375L3.10204 11.937C3.31335 12.9354 3.87585 14 5 14C6.41601 14 6.94087 12.3109 6.99521 11.1925C7.12904 9.96147 7.53321 8.00009 9.00001 8.00009C10.4315 8.00009 10.8652 9.85637 11.0019 11.107C11.006 11.2242 11.0168 11.3397 11.034 11.4532L11.0389 11.5195L11.0447 11.519C11.2906 12.9285 12.5202 14 14 14C15.6568 14 17 12.6569 17 11.0001C17 9.84717 17.1543 9.1698 17.9282 8.28752C18.6819 7.42838 19.1801 7.20053 20.069 6.95399C20.2941 6.91718 20.5121 6.85889 20.7206 6.78128L20.8596 6.7447L20.8451 6.73219Z"/>
</mask>
<path fill-rule="evenodd" clip-rule="evenodd" d="M20.8451 6.73219C22.1105 6.20499 23 4.95637 23 3.5C23 1.567 21.433 0 19.5 0C17.8671 0 16.4953 1.11826 16.1088 2.63075L16.1024 2.62521C16.0814 2.6803 16.0538 2.82408 16.0147 3.0276C15.8064 4.11227 15.272 6.89393 13.6783 6.99179C11.5091 7.12499 11.2047 5.25391 11.0343 4.2065C11.0224 4.13336 11.0112 4.06424 11 4.00009H11V4C11 2.89543 10.1046 2 9 2C7.89543 2 7 2.89543 7 4C7 4.04861 6.9998 4.09875 6.99959 4.15019V4.15021V4.15023V4.15024C6.99895 4.30839 6.99826 4.47884 7.00325 4.65495C6.99728 5.81016 6.86161 7.42652 5.50001 8.00009C4.43524 8.44863 4.00001 7.35659 4.00001 6.50009L3.98798 6.50742C3.93006 5.47824 3.61143 4.32362 2 4.50001C0.901989 4.62019 0 5.89544 0 7.00001C0 7.60505 0.268674 8.14735 0.693225 8.5141L0.665649 8.53089C1.44986 9.00142 2.74912 10.2301 3.0527 11.6655C3.06342 11.7359 3.07586 11.8071 3.0901 11.8788C3.09281 11.8983 3.09533 11.9179 3.09766 11.9375L3.10204 11.937C3.31335 12.9354 3.87585 14 5 14C6.41601 14 6.94087 12.3109 6.99521 11.1925C7.12904 9.96147 7.53321 8.00009 9.00001 8.00009C10.4315 8.00009 10.8652 9.85637 11.0019 11.107C11.006 11.2242 11.0168 11.3397 11.034 11.4532L11.0389 11.5195L11.0447 11.519C11.2906 12.9285 12.5202 14 14 14C15.6568 14 17 12.6569 17 11.0001C17 9.84717 17.1543 9.1698 17.9282 8.28752C18.6819 7.42838 19.1801 7.20053 20.069 6.95399C20.2941 6.91718 20.5121 6.85889 20.7206 6.78128L20.8596 6.7447L20.8451 6.73219Z" fill="url(#paint1_linear_36_26)"/>
<path d="M20.8451 6.73219L20.7682 6.54757L20.4699 6.67185L20.7142 6.88338L20.8451 6.73219ZM16.1088 2.63075L15.9779 2.78195L16.2225 2.99375L16.3026 2.68028L16.1088 2.63075ZM16.1024 2.62521L16.2333 2.47402L16.0173 2.28692L15.9155 2.55401L16.1024 2.62521ZM16.0147 3.0276L16.2111 3.06533L16.2111 3.06533L16.0147 3.0276ZM13.6783 6.99179L13.6661 6.79217L13.6661 6.79217L13.6783 6.99179ZM11.0343 4.2065L11.2317 4.17439L11.2317 4.17439L11.0343 4.2065ZM11 4.00009L11.197 3.96575L11.1682 3.80009H11V4.00009ZM11 4.00009H10.8V4.20009H11V4.00009ZM6.99959 4.15019L6.79959 4.14938V4.15019H6.99959ZM6.99959 4.15024L7.19959 4.15105V4.15024H6.99959ZM7.00325 4.65495L7.20336 4.65599L7.20317 4.64929L7.00325 4.65495ZM5.50001 8.00009L5.57765 8.18441L5.57765 8.18441L5.50001 8.00009ZM4.00001 6.50009H4.20001V6.1441L3.89598 6.32928L4.00001 6.50009ZM3.98798 6.50742L3.7883 6.51866L3.80705 6.8518L4.09202 6.67823L3.98798 6.50742ZM2 4.50001L1.97824 4.30119L1.97824 4.30119L2 4.50001ZM0.693225 8.5141L0.79726 8.68491L1.03165 8.54215L0.823967 8.36275L0.693225 8.5141ZM0.665649 8.53089L0.561614 8.36008L0.279058 8.53217L0.56275 8.70239L0.665649 8.53089ZM3.0527 11.6655L3.25074 11.6353L3.24837 11.6241L3.0527 11.6655ZM3.0901 11.8788L3.28853 11.8512L3.28627 11.8398L3.0901 11.8788ZM3.09766 11.9375L2.89905 11.961L2.92241 12.1582L3.11974 12.1363L3.09766 11.9375ZM3.10204 11.937L3.29771 11.8956L3.26017 11.7182L3.07996 11.7382L3.10204 11.937ZM6.99521 11.1925L6.79602 11.1709L6.79544 11.1828L6.99521 11.1925ZM11.0019 11.107L11.2017 11.1L11.2015 11.0926L11.2007 11.0853L11.0019 11.107ZM11.034 11.4532L11.2335 11.4384L11.2329 11.4308L11.2317 11.4232L11.034 11.4532ZM11.0389 11.5195L10.8395 11.5343L10.8544 11.7364L11.0563 11.7188L11.0389 11.5195ZM11.0447 11.519L11.2418 11.4847L11.2102 11.3038L11.0274 11.3198L11.0447 11.519ZM17 11.0001L17.2 11.0001V11.0001H17ZM17.9282 8.28752L17.7779 8.15563L17.7779 8.15563L17.9282 8.28752ZM20.069 6.95399L20.0367 6.75661L20.026 6.75836L20.0155 6.76126L20.069 6.95399ZM20.7206 6.78128L20.6697 6.58787L20.6601 6.59038L20.6508 6.59384L20.7206 6.78128ZM20.8596 6.7447L20.9105 6.93812L21.277 6.84165L20.9905 6.59352L20.8596 6.7447ZM22.8 3.5C22.8 4.87284 21.9616 6.05033 20.7682 6.54757L20.922 6.91681C22.2593 6.35964 23.2 5.03991 23.2 3.5H22.8ZM19.5 0.2C21.3225 0.2 22.8 1.67746 22.8 3.5H23.2C23.2 1.45655 21.5435 -0.2 19.5 -0.2V0.2ZM16.3026 2.68028C16.667 1.25417 17.9607 0.2 19.5 0.2V-0.2C17.7735 -0.2 16.3236 0.982352 15.915 2.58123L16.3026 2.68028ZM15.9715 2.77641L15.9779 2.78195L16.2397 2.47956L16.2333 2.47402L15.9715 2.77641ZM16.2111 3.06533C16.2308 2.96289 16.2471 2.87813 16.261 2.81206C16.276 2.74115 16.2853 2.70691 16.2893 2.69642L15.9155 2.55401C15.8985 2.5986 15.8835 2.66379 15.8696 2.72943C15.8548 2.7999 15.8377 2.88879 15.8183 2.98988L16.2111 3.06533ZM13.6906 7.19142C14.6141 7.13471 15.1891 6.3062 15.5501 5.45806C15.9185 4.59237 16.1074 3.60544 16.2111 3.06533L15.8183 2.98988C15.7137 3.53443 15.5313 4.48067 15.182 5.30144C14.8253 6.13976 14.3363 6.75102 13.6661 6.79217L13.6906 7.19142ZM10.8369 4.23861C10.921 4.75568 11.0438 5.52673 11.4378 6.14887C11.6375 6.46423 11.909 6.74571 12.2825 6.93791C12.6559 7.1301 13.1187 7.22653 13.6906 7.19142L13.6661 6.79217C13.1534 6.82365 12.7646 6.73615 12.4655 6.58224C12.1665 6.42835 11.9446 6.20157 11.7757 5.93488C11.4326 5.39292 11.318 4.70473 11.2317 4.17439L10.8369 4.23861ZM10.803 4.03443C10.8139 4.09725 10.825 4.16521 10.8369 4.23861L11.2317 4.17439C11.2199 4.10151 11.2085 4.03122 11.197 3.96575L10.803 4.03443ZM11 4.20009H11V3.80009H11V4.20009ZM10.8 4V4.00009H11.2V4H10.8ZM9 2.2C9.99411 2.2 10.8 3.00589 10.8 4H11.2C11.2 2.78497 10.215 1.8 9 1.8V2.2ZM7.2 4C7.2 3.00589 8.00589 2.2 9 2.2V1.8C7.78497 1.8 6.8 2.78497 6.8 4H7.2ZM7.19959 4.151C7.1998 4.09964 7.2 4.04908 7.2 4H6.8C6.8 4.04813 6.7998 4.09786 6.79959 4.14938L7.19959 4.151ZM7.19959 4.15021V4.15019H6.79959V4.15021H7.19959ZM7.19959 4.15023V4.15021H6.79959V4.15023H7.19959ZM7.19959 4.15024V4.15023H6.79959V4.15024H7.19959ZM7.20317 4.64929C7.19829 4.4769 7.19895 4.30959 7.19959 4.15105L6.79959 4.14943C6.79895 4.30718 6.79824 4.48078 6.80333 4.66062L7.20317 4.64929ZM5.57765 8.18441C6.32701 7.86874 6.73289 7.26532 6.9499 6.60837C7.16516 5.95668 7.20024 5.23726 7.20325 4.65599L6.80325 4.65392C6.80029 5.22785 6.76454 5.89421 6.57008 6.4829C6.37736 7.06633 6.03461 7.55787 5.42237 7.81578L5.57765 8.18441ZM3.80001 6.50009C3.80001 6.95291 3.91352 7.48819 4.19046 7.85913C4.33163 8.0482 4.52062 8.20109 4.76313 8.26815C5.00615 8.33535 5.27966 8.30994 5.57765 8.18441L5.42237 7.81578C5.18798 7.91452 5.0078 7.9208 4.86974 7.88262C4.73119 7.84431 4.61173 7.75476 4.51098 7.61983C4.30412 7.34276 4.20001 6.90376 4.20001 6.50009H3.80001ZM4.09202 6.67823L4.10405 6.67091L3.89598 6.32928L3.88395 6.33661L4.09202 6.67823ZM2.02176 4.69882C2.77119 4.61679 3.17702 4.84328 3.41498 5.16949C3.66746 5.51561 3.75976 6.01166 3.7883 6.51866L4.18767 6.49618C4.15828 5.974 4.0623 5.37815 3.73813 4.93376C3.39945 4.46946 2.84024 4.20684 1.97824 4.30119L2.02176 4.69882ZM0.2 7.00001C0.2 6.49847 0.40657 5.94538 0.746812 5.50275C1.08756 5.05947 1.54284 4.75124 2.02176 4.69882L1.97824 4.30119C1.35914 4.36896 0.814429 4.75845 0.42968 5.25898C0.0444248 5.76016 -0.2 6.39698 -0.2 7.00001H0.2ZM0.823967 8.36275C0.441521 8.03237 0.2 7.54451 0.2 7.00001H-0.2C-0.2 7.6656 0.0958267 8.26233 0.562483 8.66545L0.823967 8.36275ZM0.769685 8.7017L0.79726 8.68491L0.589189 8.34328L0.561614 8.36008L0.769685 8.7017ZM3.24837 11.6241C3.08746 10.8633 2.66582 10.1679 2.19219 9.60731C1.71823 9.0463 1.1808 8.60674 0.768549 8.35939L0.56275 8.70239C0.934718 8.92557 1.43902 9.33563 1.88664 9.86545C2.33458 10.3957 2.71435 11.0323 2.85703 11.7069L3.24837 11.6241ZM2.85498 11.6956C2.86614 11.7689 2.8791 11.8431 2.89393 11.9177L3.28627 11.8398C3.27262 11.7711 3.2607 11.7028 3.25042 11.6354L2.85498 11.6956ZM3.29627 11.914C3.29378 11.893 3.29109 11.8721 3.2882 11.8513L2.892 11.9063C2.89453 11.9245 2.89688 11.9428 2.89905 11.961L3.29627 11.914ZM3.07996 11.7382L3.07557 11.7387L3.11974 12.1363L3.12413 12.1358L3.07996 11.7382ZM2.90638 11.9784C3.01572 12.4951 3.21839 13.0431 3.55152 13.4666C3.88892 13.8955 4.36463 14.2 5 14.2V13.8C4.51123 13.8 4.14361 13.5723 3.8659 13.2193C3.58391 12.8608 3.39968 12.3774 3.29771 11.8956L2.90638 11.9784ZM5 14.2C5.80457 14.2 6.34598 13.7142 6.6827 13.1134C7.01712 12.5167 7.16679 11.7822 7.19497 11.2022L6.79544 11.1828C6.76928 11.7212 6.62935 12.3904 6.33376 12.9179C6.04046 13.4412 5.61143 13.8 5 13.8V14.2ZM9.00001 7.80009C8.15394 7.80009 7.63257 8.3739 7.31656 9.04997C7.00102 9.72506 6.86387 10.5501 6.79638 11.1709L7.19404 11.2141C7.26038 10.6038 7.39224 9.83271 7.67893 9.21935C7.96517 8.60698 8.37928 8.20009 9.00001 8.20009V7.80009ZM11.2007 11.0853C11.1316 10.4528 10.986 9.64839 10.6661 8.99645C10.345 8.34231 9.82429 7.80009 9.00001 7.80009V8.20009C9.6072 8.20009 10.0191 8.58602 10.307 9.17267C10.5959 9.76152 10.7355 10.5105 10.8031 11.1287L11.2007 11.0853ZM11.2317 11.4232C11.2157 11.3174 11.2056 11.2095 11.2017 11.1L10.802 11.114C10.8064 11.2389 10.8179 11.3621 10.8363 11.4831L11.2317 11.4232ZM11.2384 11.5048L11.2335 11.4384L10.8346 11.4679L10.8395 11.5343L11.2384 11.5048ZM11.0274 11.3198L11.0215 11.3203L11.0563 11.7188L11.0621 11.7183L11.0274 11.3198ZM14 13.8C12.619 13.8 11.4712 12.8 11.2418 11.4847L10.8477 11.5534C11.11 13.057 12.4213 14.2 14 14.2V13.8ZM16.8 11.0001C16.8 12.5464 15.5464 13.8 14 13.8V14.2C15.7673 14.2 17.2 12.7674 17.2 11.0001L16.8 11.0001ZM17.7779 8.15563C17.3777 8.61187 17.129 9.0253 16.9834 9.48148C16.8387 9.93462 16.8 10.4166 16.8 11.0001H17.2C17.2 10.4307 17.2385 9.9975 17.3644 9.60315C17.4894 9.21185 17.7048 8.84545 18.0786 8.41941L17.7779 8.15563ZM20.0155 6.76126C19.5662 6.88588 19.199 7.01006 18.846 7.2189C18.4922 7.42827 18.1634 7.71618 17.7779 8.15563L18.0786 8.41941C18.4467 7.99972 18.7438 7.74414 19.0497 7.56316C19.3565 7.38165 19.6828 7.26864 20.1224 7.14671L20.0155 6.76126ZM20.6508 6.59384C20.4543 6.66697 20.2489 6.72191 20.0367 6.75661L20.1012 7.15137C20.3393 7.11245 20.5698 7.0508 20.7904 6.96872L20.6508 6.59384ZM20.8087 6.55129L20.6697 6.58787L20.7715 6.97469L20.9105 6.93812L20.8087 6.55129ZM20.7142 6.88338L20.7286 6.89589L20.9905 6.59352L20.976 6.581L20.7142 6.88338Z" fill="black" mask="url(#path-2-inside-1_36_26)"/>
<defs>
<linearGradient id="paint0_linear_36_26" x1="25.2638" y1="4.61264" x2="25.2638" y2="14.6519" gradientUnits="userSpaceOnUse">
<stop stop-color="#D9D9D9"/>
<stop offset="0.64" stop-color="#737373"/>
</linearGradient>
<linearGradient id="paint1_linear_36_26" x1="12.2584" y1="-4.17788" x2="12.2584" y2="13.3908" gradientUnits="userSpaceOnUse">
<stop stop-color="#D9D9D9"/>
<stop offset="0.64" stop-color="#737373"/>
</linearGradient>
</defs>
</svg>
