<svg width="30" height="16" viewBox="0 0 30 16" fill="none" xmlns="http://www.w3.org/2000/svg">
<circle cx="25.8924" cy="11.488" r="3.9" fill="url(#paint0_linear_115_57)" stroke="#A40505" stroke-width="0.2"/>
<mask id="path-2-inside-1_115_57" fill="white">
<path fill-rule="evenodd" clip-rule="evenodd" d="M21.7375 7.22017C23.0029 6.69296 23.8924 5.44435 23.8924 3.98798C23.8924 2.05498 22.3254 0.487976 20.3924 0.487976C18.7594 0.487976 17.3877 1.60624 17.0012 3.11873L16.9948 3.11319C16.9738 3.16827 16.9462 3.31205 16.9071 3.51558C16.6987 4.60025 16.1644 7.38191 14.5707 7.47977C12.4014 7.61297 12.0971 5.74189 11.9267 4.69447C11.9148 4.62134 11.9036 4.55221 11.8924 4.48807H11.8924V4.48798C11.8924 3.38341 10.9969 2.48798 9.89236 2.48798C8.7878 2.48798 7.89236 3.38341 7.89236 4.48798C7.89236 4.53658 7.89216 4.58672 7.89195 4.63817V4.63819V4.6382V4.63822C7.89131 4.79636 7.89063 4.96682 7.89562 5.14293C7.88964 6.29814 7.75397 7.9145 6.39237 8.48807C5.32761 8.9366 4.89238 7.84456 4.89238 6.98807L4.88035 6.9954C4.82242 5.96622 4.5038 4.8116 2.89236 4.98798C1.79435 5.10817 0.892365 6.38341 0.892365 7.48798C0.892365 8.09303 1.16104 8.63533 1.58559 9.00207L1.55801 9.01887C2.34223 9.4894 3.64148 10.7181 3.94507 12.1535C3.95578 12.2238 3.96822 12.2951 3.98246 12.3668C3.98518 12.3863 3.9877 12.4059 3.99002 12.4255L3.99441 12.425C4.20572 13.4234 4.76822 14.488 5.89236 14.488C7.30837 14.488 7.83323 12.7989 7.88757 11.6805C8.02141 10.4494 8.42558 8.48807 9.89238 8.48807C11.3238 8.48807 11.7576 10.3443 11.8942 11.595C11.8983 11.7122 11.9092 11.8277 11.9264 11.9412L11.9313 12.0075L11.9371 12.007C12.1829 13.4165 13.4125 14.488 14.8924 14.488C16.5492 14.488 17.8923 13.1449 17.8924 11.4881C17.8924 10.3352 18.0467 9.65777 18.8206 8.7755C19.5742 7.91635 20.0724 7.6885 20.9613 7.44197C21.1865 7.40516 21.4044 7.34686 21.613 7.26926L21.7519 7.23268L21.7375 7.22017Z"/>
</mask>
<path fill-rule="evenodd" clip-rule="evenodd" d="M21.7375 7.22017C23.0029 6.69296 23.8924 5.44435 23.8924 3.98798C23.8924 2.05498 22.3254 0.487976 20.3924 0.487976C18.7594 0.487976 17.3877 1.60624 17.0012 3.11873L16.9948 3.11319C16.9738 3.16827 16.9462 3.31205 16.9071 3.51558C16.6987 4.60025 16.1644 7.38191 14.5707 7.47977C12.4014 7.61297 12.0971 5.74189 11.9267 4.69447C11.9148 4.62134 11.9036 4.55221 11.8924 4.48807H11.8924V4.48798C11.8924 3.38341 10.9969 2.48798 9.89236 2.48798C8.7878 2.48798 7.89236 3.38341 7.89236 4.48798C7.89236 4.53658 7.89216 4.58672 7.89195 4.63817V4.63819V4.6382V4.63822C7.89131 4.79636 7.89063 4.96682 7.89562 5.14293C7.88964 6.29814 7.75397 7.9145 6.39237 8.48807C5.32761 8.9366 4.89238 7.84456 4.89238 6.98807L4.88035 6.9954C4.82242 5.96622 4.5038 4.8116 2.89236 4.98798C1.79435 5.10817 0.892365 6.38341 0.892365 7.48798C0.892365 8.09303 1.16104 8.63533 1.58559 9.00207L1.55801 9.01887C2.34223 9.4894 3.64148 10.7181 3.94507 12.1535C3.95578 12.2238 3.96822 12.2951 3.98246 12.3668C3.98518 12.3863 3.9877 12.4059 3.99002 12.4255L3.99441 12.425C4.20572 13.4234 4.76822 14.488 5.89236 14.488C7.30837 14.488 7.83323 12.7989 7.88757 11.6805C8.02141 10.4494 8.42558 8.48807 9.89238 8.48807C11.3238 8.48807 11.7576 10.3443 11.8942 11.595C11.8983 11.7122 11.9092 11.8277 11.9264 11.9412L11.9313 12.0075L11.9371 12.007C12.1829 13.4165 13.4125 14.488 14.8924 14.488C16.5492 14.488 17.8923 13.1449 17.8924 11.4881C17.8924 10.3352 18.0467 9.65777 18.8206 8.7755C19.5742 7.91635 20.0724 7.6885 20.9613 7.44197C21.1865 7.40516 21.4044 7.34686 21.613 7.26926L21.7519 7.23268L21.7375 7.22017Z" fill="url(#paint1_linear_115_57)"/>
<path d="M21.7375 7.22017L21.6606 7.03555L21.3623 7.15982L21.6066 7.37136L21.7375 7.22017ZM17.0012 3.11873L16.8702 3.26992L17.1148 3.48172L17.1949 3.16825L17.0012 3.11873ZM16.9948 3.11319L17.1257 2.962L16.9096 2.7749L16.8079 3.04199L16.9948 3.11319ZM16.9071 3.51558L17.1035 3.55331L17.1035 3.55331L16.9071 3.51558ZM14.5707 7.47977L14.5585 7.28014L14.5585 7.28014L14.5707 7.47977ZM11.9267 4.69447L12.1241 4.66236L12.1241 4.66236L11.9267 4.69447ZM11.8924 4.48807L12.0894 4.45373L12.0605 4.28807H11.8924V4.48807ZM11.8924 4.48807H11.6924V4.68807H11.8924V4.48807ZM7.89195 4.63817L7.69195 4.63736V4.63817H7.89195ZM7.89195 4.63822L8.09195 4.63903V4.63822H7.89195ZM7.89562 5.14293L8.09573 5.14396L8.09554 5.13726L7.89562 5.14293ZM6.39237 8.48807L6.47002 8.67238L6.47002 8.67238L6.39237 8.48807ZM4.89238 6.98807H5.09238V6.63208L4.78834 6.81726L4.89238 6.98807ZM4.88035 6.9954L4.68066 7.00663L4.69941 7.33977L4.98438 7.16621L4.88035 6.9954ZM2.89236 4.98798L2.8706 4.78917L2.8706 4.78917L2.89236 4.98798ZM1.58559 9.00207L1.68962 9.17288L1.92401 9.03013L1.71633 8.85072L1.58559 9.00207ZM1.55801 9.01887L1.45398 8.84806L1.17142 9.02015L1.45511 9.19037L1.55801 9.01887ZM3.94507 12.1535L4.14311 12.1233L4.14074 12.1121L3.94507 12.1535ZM3.98246 12.3668L4.1809 12.3392L4.17863 12.3278L3.98246 12.3668ZM3.99002 12.4255L3.79141 12.449L3.81478 12.6462L4.0121 12.6243L3.99002 12.4255ZM3.99441 12.425L4.19007 12.3836L4.15253 12.2062L3.97232 12.2262L3.99441 12.425ZM7.88757 11.6805L7.68839 11.6588L7.68781 11.6708L7.88757 11.6805ZM11.8942 11.595L12.0941 11.588L12.0939 11.5806L12.0931 11.5733L11.8942 11.595ZM11.9264 11.9412L12.1258 11.9264L12.1253 11.9188L12.1241 11.9112L11.9264 11.9412ZM11.9313 12.0075L11.7318 12.0223L11.7468 12.2244L11.9487 12.2068L11.9313 12.0075ZM11.9371 12.007L12.1341 11.9726L12.1026 11.7918L11.9197 11.8078L11.9371 12.007ZM17.8924 11.4881L18.0924 11.4881V11.4881H17.8924ZM18.8206 8.7755L18.6702 8.64361L18.6702 8.64361L18.8206 8.7755ZM20.9613 7.44197L20.9291 7.24459L20.9183 7.24634L20.9079 7.24924L20.9613 7.44197ZM21.613 7.26926L21.5621 7.07584L21.5525 7.07836L21.5432 7.08181L21.613 7.26926ZM21.7519 7.23268L21.8028 7.42609L22.1694 7.32962L21.8829 7.08149L21.7519 7.23268ZM23.6924 3.98798C23.6924 5.36081 22.854 6.53831 21.6606 7.03555L21.8144 7.40478C23.1517 6.84762 24.0924 5.52788 24.0924 3.98798H23.6924ZM20.3924 0.687976C22.2149 0.687976 23.6924 2.16544 23.6924 3.98798H24.0924C24.0924 1.94452 22.4358 0.287976 20.3924 0.287976V0.687976ZM17.1949 3.16825C17.5594 1.74215 18.853 0.687976 20.3924 0.687976V0.287976C18.6659 0.287976 17.216 1.47033 16.8074 3.06921L17.1949 3.16825ZM16.8638 3.26438L16.8702 3.26992L17.1321 2.96754L17.1257 2.962L16.8638 3.26438ZM17.1035 3.55331C17.1231 3.45087 17.1394 3.36611 17.1534 3.30003C17.1684 3.22913 17.1777 3.19489 17.1817 3.18439L16.8079 3.04199C16.7909 3.08658 16.7759 3.15176 16.762 3.2174C16.7471 3.28787 16.7301 3.37677 16.7106 3.47785L17.1035 3.55331ZM14.583 7.67939C15.5065 7.62268 16.0815 6.79418 16.4424 5.94604C16.8108 5.08035 16.9997 4.09342 17.1035 3.55331L16.7106 3.47785C16.6061 4.02241 16.4236 4.96864 16.0744 5.78941C15.7176 6.62774 15.2286 7.23899 14.5585 7.28014L14.583 7.67939ZM11.7293 4.72658C11.8134 5.24366 11.9362 6.01471 12.3301 6.63684C12.5298 6.9522 12.8014 7.23368 13.1749 7.42588C13.5483 7.61808 14.0111 7.71451 14.583 7.67939L14.5585 7.28014C14.0457 7.31163 13.6569 7.22412 13.3579 7.07022C13.0589 6.91632 12.8369 6.68955 12.6681 6.42286C12.3249 5.8809 12.2104 5.1927 12.1241 4.66236L11.7293 4.72658ZM11.6953 4.52241C11.7063 4.58523 11.7174 4.65318 11.7293 4.72659L12.1241 4.66236C12.1122 4.58949 12.1008 4.5192 12.0894 4.45373L11.6953 4.52241ZM11.8924 4.68807H11.8924V4.28807H11.8924V4.68807ZM11.6924 4.48798V4.48807H12.0924V4.48798H11.6924ZM9.89236 2.68798C10.8865 2.68798 11.6924 3.49386 11.6924 4.48798H12.0924C12.0924 3.27295 11.1074 2.28798 9.89236 2.28798V2.68798ZM8.09236 4.48798C8.09236 3.49386 8.89825 2.68798 9.89236 2.68798V2.28798C8.67734 2.28798 7.69236 3.27295 7.69236 4.48798H8.09236ZM8.09195 4.63897C8.09216 4.58761 8.09236 4.53706 8.09236 4.48798H7.69236C7.69236 4.53611 7.69216 4.58584 7.69196 4.63736L8.09195 4.63897ZM8.09195 4.63819V4.63817H7.69195V4.63819H8.09195ZM8.09195 4.6382V4.63819H7.69195V4.6382H8.09195ZM8.09195 4.63822V4.6382H7.69195V4.63822H8.09195ZM8.09554 5.13726C8.09065 4.96488 8.09131 4.79757 8.09195 4.63903L7.69196 4.63741C7.69132 4.79515 7.6906 4.96875 7.6957 5.14859L8.09554 5.13726ZM6.47002 8.67238C7.21937 8.35672 7.62525 7.75329 7.84226 7.09634C8.05753 6.44466 8.09261 5.72524 8.09561 5.14396L7.69562 5.14189C7.69265 5.71583 7.65691 6.38219 7.46245 6.97088C7.26972 7.55431 6.92697 8.04585 6.31473 8.30376L6.47002 8.67238ZM4.69238 6.98807C4.69238 7.44089 4.80588 7.97616 5.08283 8.34711C5.22399 8.53618 5.41298 8.68907 5.6555 8.75613C5.89851 8.82333 6.17202 8.79791 6.47002 8.67238L6.31473 8.30376C6.08034 8.40249 5.90016 8.40877 5.76211 8.3706C5.62355 8.33228 5.50409 8.24273 5.40335 8.1078C5.19649 7.83073 5.09238 7.39174 5.09238 6.98807H4.69238ZM4.98438 7.16621L4.99641 7.15888L4.78834 6.81726L4.77631 6.82458L4.98438 7.16621ZM2.91413 5.18679C3.66356 5.10476 4.06938 5.33126 4.30734 5.65747C4.55983 6.00359 4.65213 6.49964 4.68066 7.00663L5.08003 6.98416C5.05064 6.46198 4.95467 5.86612 4.6305 5.42174C4.29181 4.95744 3.73261 4.69482 2.8706 4.78917L2.91413 5.18679ZM1.09236 7.48798C1.09236 6.98644 1.29893 6.43335 1.63918 5.99073C1.97992 5.54744 2.43521 5.23922 2.91413 5.18679L2.8706 4.78917C2.25151 4.85694 1.70679 5.24642 1.32204 5.74695C0.936789 6.24813 0.692364 6.88495 0.692364 7.48798H1.09236ZM1.71633 8.85072C1.33389 8.52035 1.09236 8.03248 1.09236 7.48798H0.692364C0.692364 8.15358 0.988191 8.7503 1.45485 9.15342L1.71633 8.85072ZM1.66205 9.18968L1.68962 9.17288L1.48155 8.83126L1.45398 8.84806L1.66205 9.18968ZM4.14074 12.1121C3.97983 11.3513 3.55819 10.6559 3.08455 10.0953C2.61059 9.53428 2.07316 9.09472 1.66091 8.84737L1.45511 9.19037C1.82708 9.41355 2.33138 9.82361 2.779 10.3534C3.22694 10.8836 3.60672 11.5203 3.74939 12.1949L4.14074 12.1121ZM3.74735 12.1836C3.75851 12.2568 3.77146 12.331 3.7863 12.4057L4.17863 12.3278C4.16499 12.2591 4.15306 12.1908 4.14278 12.1234L3.74735 12.1836ZM4.18863 12.4019C4.18615 12.381 4.18346 12.3601 4.18056 12.3392L3.78436 12.3943C3.7869 12.4125 3.78925 12.4307 3.79141 12.449L4.18863 12.4019ZM3.97232 12.2262L3.96794 12.2267L4.0121 12.6243L4.01649 12.6238L3.97232 12.2262ZM3.79874 12.4664C3.90808 12.983 4.11075 13.5311 4.44388 13.9546C4.78129 14.3834 5.25699 14.688 5.89236 14.688V14.288C5.40359 14.288 5.03597 14.0602 4.75826 13.7072C4.47628 13.3488 4.29204 12.8654 4.19007 12.3836L3.79874 12.4664ZM5.89236 14.688C6.69694 14.688 7.23835 14.2022 7.57506 13.6014C7.90949 13.0047 8.05916 12.2702 8.08734 11.6902L7.68781 11.6708C7.66165 12.2092 7.52172 12.8784 7.22613 13.4058C6.93282 13.9292 6.5038 14.288 5.89236 14.288V14.688ZM9.89238 8.28807C9.04631 8.28807 8.52494 8.86188 8.20893 9.53795C7.89338 10.213 7.75623 11.0381 7.68874 11.6589L8.0864 11.7021C8.15275 11.0918 8.2846 10.3207 8.5713 9.70733C8.85753 9.09495 9.27165 8.68807 9.89238 8.68807V8.28807ZM12.0931 11.5733C12.024 10.9408 11.8784 10.1364 11.5584 9.48443C11.2374 8.83028 10.7167 8.28807 9.89238 8.28807V8.68807C10.4996 8.68807 10.9114 9.07399 11.1993 9.66065C11.4883 10.2495 11.6279 10.9985 11.6954 11.6167L12.0931 11.5733ZM12.1241 11.9112C12.1081 11.8053 12.098 11.6975 12.0941 11.588L11.6944 11.602C11.6987 11.7269 11.7103 11.8501 11.7286 11.9711L12.1241 11.9112ZM12.1307 11.9927L12.1258 11.9264L11.7269 11.9559L11.7318 12.0223L12.1307 11.9927ZM11.9197 11.8078L11.9139 11.8083L11.9487 12.2068L11.9545 12.2062L11.9197 11.8078ZM14.8924 14.288C13.5114 14.288 12.3635 13.288 12.1341 11.9726L11.7401 12.0414C12.0023 13.545 13.3137 14.688 14.8924 14.688V14.288ZM17.6924 11.4881C17.6923 13.0344 16.4387 14.288 14.8924 14.288V14.688C16.6596 14.688 18.0923 13.2553 18.0924 11.4881L17.6924 11.4881ZM18.6702 8.64361C18.27 9.09984 18.0214 9.51327 17.8757 9.96945C17.731 10.4226 17.6924 10.9045 17.6924 11.4881H18.0924C18.0924 10.9187 18.1309 10.4855 18.2568 10.0911C18.3817 9.69982 18.5972 9.33343 18.9709 8.90738L18.6702 8.64361ZM20.9079 7.24924C20.4586 7.37386 20.0914 7.49804 19.7384 7.70688C19.3845 7.91624 19.0557 8.20415 18.6702 8.64361L18.9709 8.90738C19.3391 8.4877 19.6362 8.23211 19.9421 8.05113C20.2488 7.86963 20.5752 7.75661 21.0148 7.63469L20.9079 7.24924ZM21.5432 7.08181C21.3467 7.15495 21.1413 7.20989 20.9291 7.24459L20.9936 7.63935C21.2317 7.60042 21.4622 7.53878 21.6827 7.4567L21.5432 7.08181ZM21.701 7.03927L21.5621 7.07584L21.6639 7.46267L21.8028 7.42609L21.701 7.03927ZM21.6066 7.37136L21.621 7.38387L21.8829 7.08149L21.8684 7.06898L21.6066 7.37136Z" fill="#A40505" mask="url(#path-2-inside-1_115_57)"/>
<defs>
<linearGradient id="paint0_linear_115_57" x1="26.1562" y1="5.10061" x2="26.1562" y2="15.1398" gradientUnits="userSpaceOnUse">
<stop stop-color="#FC6D6D"/>
<stop offset="0.64" stop-color="#961717"/>
</linearGradient>
<linearGradient id="paint1_linear_115_57" x1="13.1508" y1="-3.68991" x2="13.1508" y2="13.8787" gradientUnits="userSpaceOnUse">
<stop stop-color="#FC6D6D"/>
<stop offset="0.64" stop-color="#961717"/>
</linearGradient>
</defs>
</svg>
