<svg width="29" height="15" viewBox="0 0 29 15" fill="none" xmlns="http://www.w3.org/2000/svg">
<circle cx="25" cy="11" r="4" fill="url(#paint0_linear_36_26)"/>
<path fill-rule="evenodd" clip-rule="evenodd" d="M20.8451 6.73219C22.1105 6.20499 23 4.95637 23 3.5C23 1.567 21.433 0 19.5 0C17.8671 0 16.4953 1.11826 16.1088 2.63075L16.1024 2.62521C16.0814 2.6803 16.0538 2.82408 16.0147 3.0276C15.8064 4.11227 15.272 6.89393 13.6783 6.99179C11.5091 7.12499 11.2047 5.25391 11.0343 4.2065C11.0224 4.13336 11.0112 4.06424 11 4.00009H11V4C11 2.89543 10.1046 2 9 2C7.89543 2 7 2.89543 7 4C7 4.04861 6.9998 4.09875 6.99959 4.15019V4.15021V4.15023V4.15024C6.99895 4.30839 6.99826 4.47884 7.00325 4.65495C6.99728 5.81016 6.86161 7.42652 5.50001 8.00009C4.43524 8.44863 4.00001 7.35659 4.00001 6.50009L3.98798 6.50742C3.93006 5.47824 3.61143 4.32362 2 4.50001C0.901989 4.62019 0 5.89544 0 7.00001C0 7.60505 0.268674 8.14735 0.693225 8.5141L0.665649 8.53089C1.44986 9.00142 2.74912 10.2301 3.0527 11.6655C3.06342 11.7359 3.07586 11.8071 3.0901 11.8788C3.09281 11.8983 3.09533 11.9179 3.09766 11.9375L3.10204 11.937C3.31335 12.9354 3.87585 14 5 14C6.41601 14 6.94087 12.3109 6.99521 11.1925C7.12904 9.96147 7.53321 8.00009 9.00001 8.00009C10.4315 8.00009 10.8652 9.85637 11.0019 11.107C11.006 11.2242 11.0168 11.3397 11.034 11.4532L11.0389 11.5195L11.0447 11.519C11.2906 12.9285 12.5202 14 14 14C15.6568 14 17 12.6569 17 11.0001C17 9.84717 17.1543 9.1698 17.9282 8.28752C18.6819 7.42838 19.1801 7.20053 20.069 6.95399C20.2941 6.91718 20.5121 6.85889 20.7206 6.78128L20.8596 6.7447L20.8451 6.73219Z" fill="url(#paint1_linear_36_26)"/>
<defs>
<linearGradient id="paint0_linear_36_26" x1="25.2638" y1="4.61264" x2="25.2638" y2="14.6519" gradientUnits="userSpaceOnUse">
<stop stop-color="#D9D9D9"/>
<stop offset="0.64" stop-color="#737373"/>
</linearGradient>
<linearGradient id="paint1_linear_36_26" x1="12.2584" y1="-4.17788" x2="12.2584" y2="13.3908" gradientUnits="userSpaceOnUse">
<stop stop-color="#D9D9D9"/>
<stop offset="0.64" stop-color="#737373"/>
</linearGradient>
</defs>
</svg>
