<svg width="30" height="16" viewBox="0 0 30 16" fill="none" xmlns="http://www.w3.org/2000/svg">
<circle cx="25.8924" cy="11.5142" r="4" fill="url(#paint0_linear_115_66)"/>
<path fill-rule="evenodd" clip-rule="evenodd" d="M21.7375 7.24635C23.0029 6.71915 23.8924 5.47053 23.8924 4.01416C23.8924 2.08116 22.3254 0.51416 20.3924 0.51416C18.7594 0.51416 17.3877 1.63242 17.0012 3.14492L16.9948 3.13937C16.9738 3.19446 16.9462 3.33824 16.9071 3.54176C16.6987 4.62643 16.1644 7.40809 14.5707 7.50595C12.4014 7.63915 12.0971 5.76807 11.9267 4.72066C11.9148 4.64752 11.9036 4.5784 11.8924 4.51425H11.8924V4.51416C11.8924 3.40959 10.9969 2.51416 9.89236 2.51416C8.7878 2.51416 7.89236 3.40959 7.89236 4.51416C7.89236 4.56277 7.89216 4.61291 7.89195 4.66435V4.66437V4.66439V4.6644C7.89131 4.82255 7.89063 4.993 7.89562 5.16911C7.88964 6.32432 7.75397 7.94068 6.39237 8.51425C5.32761 8.96279 4.89238 7.87075 4.89238 7.01425L4.88035 7.02158C4.82242 5.9924 4.5038 4.83778 2.89236 5.01417C1.79435 5.13435 0.892365 6.4096 0.892365 7.51417C0.892365 8.11922 1.16104 8.66151 1.58559 9.02826L1.55801 9.04505C2.34223 9.51558 3.64148 10.7443 3.94507 12.1797C3.95578 12.25 3.96822 12.3212 3.98246 12.3929C3.98518 12.4125 3.9877 12.4321 3.99002 12.4517L3.99441 12.4512C4.20572 13.4496 4.76822 14.5142 5.89236 14.5142C7.30837 14.5142 7.83323 12.8251 7.88757 11.7067C8.02141 10.4756 8.42558 8.51425 9.89238 8.51425C11.3238 8.51425 11.7576 10.3705 11.8942 11.6212C11.8983 11.7384 11.9092 11.8539 11.9264 11.9673L11.9313 12.0337L11.9371 12.0332C12.1829 13.4427 13.4125 14.5142 14.8924 14.5142C16.5492 14.5142 17.8923 13.1711 17.8924 11.5143C17.8924 10.3613 18.0467 9.68396 18.8206 8.80168C19.5742 7.94254 20.0724 7.71469 20.9613 7.46815C21.1865 7.43134 21.4044 7.37305 21.613 7.29544L21.7519 7.25886L21.7375 7.24635Z" fill="url(#paint1_linear_115_66)"/>
<defs>
<linearGradient id="paint0_linear_115_66" x1="26.1562" y1="5.1268" x2="26.1562" y2="15.166" gradientUnits="userSpaceOnUse">
<stop offset="0.18" stop-color="#EED864"/>
<stop offset="0.64" stop-color="#E58B00"/>
</linearGradient>
<linearGradient id="paint1_linear_115_66" x1="13.1508" y1="-3.66372" x2="13.1508" y2="13.9049" gradientUnits="userSpaceOnUse">
<stop offset="0.18" stop-color="#EED864"/>
<stop offset="0.64" stop-color="#E58B00"/>
</linearGradient>
</defs>
</svg>
