<svg width="30" height="16" viewBox="0 0 30 16" fill="none" xmlns="http://www.w3.org/2000/svg">
<circle cx="25.8924" cy="11.4356" r="4" fill="url(#paint0_linear_115_39)"/>
<path fill-rule="evenodd" clip-rule="evenodd" d="M21.7375 7.1678C23.0029 6.64059 23.8924 5.39198 23.8924 3.93561C23.8924 2.00261 22.3254 0.435608 20.3924 0.435608C18.7594 0.435608 17.3877 1.55387 17.0012 3.06636L16.9948 3.06082C16.9738 3.11591 16.9462 3.25968 16.9071 3.46321C16.6987 4.54788 16.1644 7.32954 14.5707 7.4274C12.4014 7.5606 12.0971 5.68952 11.9267 4.64211C11.9148 4.56897 11.9036 4.49984 11.8924 4.4357H11.8924V4.43561C11.8924 3.33104 10.9969 2.43561 9.89236 2.43561C8.7878 2.43561 7.89236 3.33104 7.89236 4.43561C7.89236 4.48422 7.89216 4.53436 7.89195 4.5858V4.58582V4.58583V4.58585C7.89131 4.74399 7.89063 4.91445 7.89562 5.09056C7.88964 6.24577 7.75397 7.86213 6.39237 8.4357C5.32761 8.88423 4.89238 7.79219 4.89238 6.9357L4.88035 6.94303C4.82242 5.91385 4.5038 4.75923 2.89236 4.93561C1.79435 5.0558 0.892365 6.33104 0.892365 7.43561C0.892365 8.04066 1.16104 8.58296 1.58559 8.9497L1.55801 8.9665C2.34223 9.43703 3.64148 10.6657 3.94507 12.1011C3.95578 12.1715 3.96822 12.2427 3.98246 12.3144C3.98518 12.3339 3.9877 12.3535 3.99002 12.3731L3.99441 12.3726C4.20572 13.371 4.76822 14.4356 5.89236 14.4356C7.30837 14.4356 7.83323 12.7465 7.88757 11.6281C8.02141 10.3971 8.42558 8.4357 9.89238 8.4357C11.3238 8.4357 11.7576 10.292 11.8942 11.5426C11.8983 11.6598 11.9092 11.7754 11.9264 11.8888L11.9313 11.9551L11.9371 11.9546C12.1829 13.3641 13.4125 14.4356 14.8924 14.4356C16.5492 14.4356 17.8923 13.0925 17.8924 11.4357C17.8924 10.2828 18.0467 9.60541 18.8206 8.72313C19.5742 7.86399 20.0724 7.63614 20.9613 7.3896C21.1865 7.35279 21.4044 7.29449 21.613 7.21689L21.7519 7.18031L21.7375 7.1678Z" fill="url(#paint1_linear_115_39)"/>
<defs>
<linearGradient id="paint0_linear_115_39" x1="26.1562" y1="5.04825" x2="26.1562" y2="15.0875" gradientUnits="userSpaceOnUse">
<stop offset="0.184" stop-color="#7086B5"/>
<stop offset="0.64" stop-color="#385082"/>
</linearGradient>
<linearGradient id="paint1_linear_115_39" x1="13.1508" y1="-3.74227" x2="13.1508" y2="13.8264" gradientUnits="userSpaceOnUse">
<stop offset="0.184" stop-color="#7086B5"/>
<stop offset="0.64" stop-color="#385082"/>
</linearGradient>
</defs>
</svg>
