<svg width="8" height="7" viewBox="0 0 8 7" fill="none" xmlns="http://www.w3.org/2000/svg">
<path d="M3.40792 0.0396128C3.31445 0.0141598 3.21824 0 3.12136 0H2.91628C2.75059 0 2.61628 0.134315 2.61628 0.3V5.19009C2.37765 5.12397 2.05934 5.09091 1.63953 5.09091C1.10009 5.09091 0.5 5.51827 0.5 6.04545C0.5 6.68182 1.10009 7 1.63953 7C2.45349 7 3.26744 6.57264 3.26744 6.04545V1.35651C3.26744 1.23066 3.3821 1.13484 3.50654 1.15366C3.81812 1.20079 4.40132 1.27273 5.05814 1.27273C5.71496 1.27273 6.29816 1.20079 6.60974 1.15366C6.73418 1.13484 6.84884 1.23066 6.84884 1.35651V5.19009C6.61021 5.12397 6.2919 5.09091 5.87209 5.09091C5.33265 5.09091 4.73256 5.51827 4.73256 6.04545C4.73256 6.68182 5.33265 7 5.87209 7C6.68605 7 7.5 6.57264 7.5 6.04545V0.3C7.5 0.134315 7.36569 0 7.2 0H6.99492C6.89804 0 6.80183 0.0141598 6.70836 0.0396128C6.39523 0.124886 5.62311 0.318182 5.05814 0.318182C4.49317 0.318182 3.72105 0.124886 3.40792 0.0396128Z" fill="#9D9896"/>
</svg>
