<svg width="792" height="210" viewBox="0 0 792 210" fill="none" xmlns="http://www.w3.org/2000/svg">
<mask id="mask0_152_22" style="mask-type:alpha" maskUnits="userSpaceOnUse" x="0" y="0" width="792" height="210">
<rect width="792" height="210" fill="url(#paint0_linear_152_22)"/>
</mask>
<g mask="url(#mask0_152_22)">
<path fill-rule="evenodd" clip-rule="evenodd" d="M384 112.5C385.2 61.7 330.5 48.5 296.5 48.5C258.999 48.5 206.5 60.5 206.5 112.5C206.5 166 265.5 175 296.5 176.5C325.167 176.333 382.8 163.3 384 112.5ZM296.5 65.5C253 65.5 246.167 95.3333 246 112.5C246 128.167 256.092 160.5 296.5 160.5C333.5 160.5 342 130 342 112.5C342 93 334 65.5 296.5 65.5ZM63.5 81.5C63.3333 75.8333 70.6 64.5 101 64.5C131.4 64.5 151 82.1667 157 91C157.333 91.3333 158 96 158 96H175.5V52.5H157C156.833 55.3333 156 61.2 154 62C152 62.8 147.833 60.3333 146 59C142.5 55.5 128.6 48.6 101 49C66.5 49.5 39 60.5 31 81.5C24.6 98.3 38.6667 110.833 46.5 115C49.8333 117.333 63.6 122.7 92 125.5C127.5 129 146 134 147.5 142.5C148.7 149.3 141.333 154.333 137.5 156C126.833 159.5 100.6 164.4 81 156C56.5 145.5 50.5 134.5 49 128.5H30V172H50.5C50.8333 169.333 52.2 163.8 55 163C58.013 162.139 61.3966 163.872 66.1076 166.285C66.869 166.675 67.6652 167.083 68.5 167.5C74.5 170.5 86.5117 174.232 112.5 175.5C133 176.5 150.5 172.5 159 168.5C167.5 165.5 184 154.5 182 134.5C180 114.5 156.167 105.167 144.5 103C137.167 101.333 119.1 98 105.5 98C88.5 98 64.9999 94.5 63.5 81.5ZM389 54V69.5H405C412.682 68.9345 414.434 71.3681 414.5 79V151.5C414.092 155.777 412.648 156.688 409 157H389V173H460.5V157H445C441.056 156.818 439.599 155.89 439.5 151.5V85.5L527 173H552.5V79C552.436 72.87 553.43 70.3907 559 69.5H574.5V54H506V69.5H517.5C524.695 69.7245 527.075 71.5058 527 79V126.5L454.5 54H389ZM588 54V69.5H599.5C604.458 69.7281 606.829 71.0434 610.5 75L655 123.5V153.5C654.503 156.633 653.409 157.5 650.5 158H631.5V173H717V158H696.5C693.324 157.661 692.323 156.692 692 153.5V123.5L746 69.5H762V54H699.5V69.5H708.5C711.033 69.4282 713 71 710.5 73.5L687 97C683.486 100.214 681.514 100.238 678 97L654.5 73.5C652.5 71 654.054 69.5056 656.5 69.5H667V54H588Z" fill="url(#paint1_linear_152_22)"/>
</g>
<defs>
<linearGradient id="paint0_linear_152_22" x1="0" y1="105" x2="792" y2="105" gradientUnits="userSpaceOnUse">
<stop stop-color="#8B8B8B"/>
<stop offset="0.199" stop-color="#B1B1B1"/>
<stop offset="0.349" stop-color="#DFDFDF"/>
<stop offset="1" stop-color="#E0E0E0"/>
</linearGradient>
<linearGradient id="paint1_linear_152_22" x1="29.3771" y1="112.5" x2="762" y2="112" gradientUnits="userSpaceOnUse">
<stop stop-color="#8B8B8B"/>
<stop offset="0.169" stop-color="#B1B1B1"/>
<stop offset="0.364" stop-color="#D9D9D9"/>
<stop offset="1" stop-color="#E0E0E0"/>
</linearGradient>
</defs>
</svg>
