<svg width="30" height="16" viewBox="0 0 30 16" fill="none" xmlns="http://www.w3.org/2000/svg">
<circle cx="25.8924" cy="11.4618" r="4" fill="url(#paint0_linear_115_48)"/>
<path fill-rule="evenodd" clip-rule="evenodd" d="M21.7375 7.19398C23.0029 6.66678 23.8924 5.41816 23.8924 3.96179C23.8924 2.0288 22.3254 0.461792 20.3924 0.461792C18.7594 0.461792 17.3877 1.58005 17.0012 3.09255L16.9948 3.08701C16.9738 3.14209 16.9462 3.28587 16.9071 3.4894C16.6987 4.57406 16.1644 7.35573 14.5707 7.45358C12.4014 7.58679 12.0971 5.7157 11.9267 4.66829C11.9148 4.59515 11.9036 4.52603 11.8924 4.46188H11.8924V4.46179C11.8924 3.35722 10.9969 2.46179 9.89236 2.46179C8.7878 2.46179 7.89236 3.35722 7.89236 4.46179C7.89236 4.5104 7.89216 4.56054 7.89195 4.61198V4.612V4.61202V4.61203C7.89131 4.77018 7.89063 4.94063 7.89562 5.11675C7.88964 6.27195 7.75397 7.88831 6.39237 8.46189C5.32761 8.91042 4.89238 7.81838 4.89238 6.96189L4.88035 6.96921C4.82242 5.94003 4.5038 4.78541 2.89236 4.9618C1.79435 5.08199 0.892365 6.35723 0.892365 7.4618C0.892365 8.06685 1.16104 8.60914 1.58559 8.97589L1.55801 8.99268C2.34223 9.46321 3.64148 10.6919 3.94507 12.1273C3.95578 12.1976 3.96822 12.2689 3.98246 12.3406C3.98518 12.3601 3.9877 12.3797 3.99002 12.3993L3.99441 12.3988C4.20572 13.3972 4.76822 14.4618 5.89236 14.4618C7.30837 14.4618 7.83323 12.7727 7.88757 11.6543C8.02141 10.4233 8.42558 8.46189 9.89238 8.46189C11.3238 8.46189 11.7576 10.3182 11.8942 11.5688C11.8983 11.686 11.9092 11.8015 11.9264 11.915L11.9313 11.9813L11.9371 11.9808C12.1829 13.3903 13.4125 14.4618 14.8924 14.4618C16.5492 14.4618 17.8923 13.1187 17.8924 11.4619C17.8924 10.309 18.0467 9.63159 18.8206 8.74931C19.5742 7.89017 20.0724 7.66232 20.9613 7.41578C21.1865 7.37897 21.4044 7.32068 21.613 7.24307L21.7519 7.2065L21.7375 7.19398Z" fill="url(#paint1_linear_115_48)"/>
<defs>
<linearGradient id="paint0_linear_115_48" x1="26.1562" y1="5.07443" x2="26.1562" y2="15.1137" gradientUnits="userSpaceOnUse">
<stop offset="0.18" stop-color="#FF69B4"/>
<stop offset="0.64" stop-color="#EF148A"/>
</linearGradient>
<linearGradient id="paint1_linear_115_48" x1="13.1508" y1="-3.71609" x2="13.1508" y2="13.8525" gradientUnits="userSpaceOnUse">
<stop offset="0.18" stop-color="#FF69B4"/>
<stop offset="0.64" stop-color="#EF148A"/>
</linearGradient>
</defs>
</svg>
