<svg width="30" height="16" viewBox="0 0 30 16" fill="none" xmlns="http://www.w3.org/2000/svg">
<circle cx="25.8924" cy="11.488" r="4" fill="url(#paint0_linear_115_57)"/>
<path fill-rule="evenodd" clip-rule="evenodd" d="M21.7375 7.22017C23.0029 6.69296 23.8924 5.44435 23.8924 3.98798C23.8924 2.05498 22.3254 0.487976 20.3924 0.487976C18.7594 0.487976 17.3877 1.60624 17.0012 3.11873L16.9948 3.11319C16.9738 3.16827 16.9462 3.31205 16.9071 3.51558C16.6987 4.60025 16.1644 7.38191 14.5707 7.47977C12.4014 7.61297 12.0971 5.74189 11.9267 4.69447C11.9148 4.62134 11.9036 4.55221 11.8924 4.48807H11.8924V4.48798C11.8924 3.38341 10.9969 2.48798 9.89236 2.48798C8.7878 2.48798 7.89236 3.38341 7.89236 4.48798C7.89236 4.53658 7.89216 4.58672 7.89195 4.63817V4.63819V4.6382V4.63822C7.89131 4.79636 7.89063 4.96682 7.89562 5.14293C7.88964 6.29814 7.75397 7.9145 6.39237 8.48807C5.32761 8.9366 4.89238 7.84456 4.89238 6.98807L4.88035 6.9954C4.82242 5.96622 4.5038 4.8116 2.89236 4.98798C1.79435 5.10817 0.892365 6.38341 0.892365 7.48798C0.892365 8.09303 1.16104 8.63533 1.58559 9.00207L1.55801 9.01887C2.34223 9.4894 3.64148 10.7181 3.94507 12.1535C3.95578 12.2238 3.96822 12.2951 3.98246 12.3668C3.98518 12.3863 3.9877 12.4059 3.99002 12.4255L3.99441 12.425C4.20572 13.4234 4.76822 14.488 5.89236 14.488C7.30837 14.488 7.83323 12.7989 7.88757 11.6805C8.02141 10.4494 8.42558 8.48807 9.89238 8.48807C11.3238 8.48807 11.7576 10.3443 11.8942 11.595C11.8983 11.7122 11.9092 11.8277 11.9264 11.9412L11.9313 12.0075L11.9371 12.007C12.1829 13.4165 13.4125 14.488 14.8924 14.488C16.5492 14.488 17.8923 13.1449 17.8924 11.4881C17.8924 10.3352 18.0467 9.65777 18.8206 8.7755C19.5742 7.91635 20.0724 7.6885 20.9613 7.44197C21.1865 7.40516 21.4044 7.34686 21.613 7.26926L21.7519 7.23268L21.7375 7.22017Z" fill="url(#paint1_linear_115_57)"/>
<defs>
<linearGradient id="paint0_linear_115_57" x1="26.1562" y1="5.10061" x2="26.1562" y2="15.1398" gradientUnits="userSpaceOnUse">
<stop offset="0.18" stop-color="#FC6D6D"/>
<stop offset="0.64" stop-color="#961717"/>
</linearGradient>
<linearGradient id="paint1_linear_115_57" x1="13.1508" y1="-3.68991" x2="13.1508" y2="13.8787" gradientUnits="userSpaceOnUse">
<stop offset="0.18" stop-color="#FC6D6D"/>
<stop offset="0.64" stop-color="#961717"/>
</linearGradient>
</defs>
</svg>
