<svg width="30" height="16" viewBox="0 0 30 16" fill="none" xmlns="http://www.w3.org/2000/svg">
<circle cx="25.8924" cy="11.5403" r="4" fill="url(#paint0_linear_115_75)"/>
<path fill-rule="evenodd" clip-rule="evenodd" d="M21.7375 7.27254C23.0029 6.74533 23.8924 5.49672 23.8924 4.04034C23.8924 2.10735 22.3254 0.540344 20.3924 0.540344C18.7594 0.540344 17.3877 1.65861 17.0012 3.1711L16.9948 3.16556C16.9738 3.22064 16.9462 3.36442 16.9071 3.56795C16.6987 4.65261 16.1644 7.43428 14.5707 7.53214C12.4014 7.66534 12.0971 5.79425 11.9267 4.74684C11.9148 4.6737 11.9036 4.60458 11.8924 4.54044H11.8924V4.54034C11.8924 3.43577 10.9969 2.54034 9.89236 2.54034C8.7878 2.54034 7.89236 3.43577 7.89236 4.54034C7.89236 4.58895 7.89216 4.63909 7.89195 4.69053V4.69055V4.69057V4.69059C7.89131 4.84873 7.89063 5.01918 7.89562 5.1953C7.88964 6.3505 7.75397 7.96686 6.39237 8.54044C5.32761 8.98897 4.89238 7.89693 4.89238 7.04044L4.88035 7.04776C4.82242 6.01859 4.5038 4.86396 2.89236 5.04035C1.79435 5.16054 0.892365 6.43578 0.892365 7.54035C0.892365 8.1454 1.16104 8.68769 1.58559 9.05444L1.55801 9.07124C2.34223 9.54176 3.64148 10.7705 3.94507 12.2058C3.95578 12.2762 3.96822 12.3474 3.98246 12.4191C3.98518 12.4387 3.9877 12.4582 3.99002 12.4778L3.99441 12.4774C4.20572 13.4758 4.76822 14.5403 5.89236 14.5403C7.30837 14.5403 7.83323 12.8512 7.88757 11.7329C8.02141 10.5018 8.42558 8.54044 9.89238 8.54044C11.3238 8.54044 11.7576 10.3967 11.8942 11.6473C11.8983 11.7646 11.9092 11.8801 11.9264 11.9935L11.9313 12.0599L11.9371 12.0594C12.1829 13.4689 13.4125 14.5403 14.8924 14.5403C16.5492 14.5403 17.8923 13.1972 17.8924 11.5404C17.8924 10.3875 18.0467 9.71014 18.8206 8.82786C19.5742 7.96872 20.0724 7.74087 20.9613 7.49433C21.1865 7.45752 21.4044 7.39923 21.613 7.32162L21.7519 7.28505L21.7375 7.27254Z" fill="url(#paint1_linear_115_75)"/>
<defs>
<linearGradient id="paint0_linear_115_75" x1="26.1562" y1="5.15298" x2="26.1562" y2="15.1922" gradientUnits="userSpaceOnUse">
<stop offset="0.18" stop-color="#32CD32"/>
<stop offset="0.64" stop-color="#207E20"/>
</linearGradient>
<linearGradient id="paint1_linear_115_75" x1="13.1508" y1="-3.63754" x2="13.1508" y2="13.9311" gradientUnits="userSpaceOnUse">
<stop offset="0.18" stop-color="#32CD32"/>
<stop offset="0.64" stop-color="#207E20"/>
</linearGradient>
</defs>
</svg>
